<svg width="32" height="32" viewBox="0 0 32 32" fill="none" xmlns="http://www.w3.org/2000/svg">
<g clip-path="url(#clip0_1552_1802)">
<path d="M27.9437 12C27.9437 10.9688 26.8643 10.0925 26.61 9.14188C26.347 8.1575 26.8357 6.86063 26.3371 5.99875C25.8318 5.125 24.4603 4.90375 23.7509 4.19438C23.0415 3.485 22.8203 2.11312 21.9465 1.6075C21.0846 1.10881 19.7878 1.59727 18.8034 1.33406C17.9062 1.07938 17.0312 0 16 0C14.9687 0 14.0937 1.07938 13.1437 1.33375C12.1562 1.59625 10.8625 1.10813 9.9987 1.60625C9.12495 2.11188 8.9037 3.48375 8.19432 4.1925C7.48557 4.90188 6.11308 5.12313 5.60745 5.99687C5.1087 6.85625 5.59745 8.15625 5.33433 9.1375C5.07933 10.0938 4 10.9688 4 12C4 13.0312 5.07938 13.9075 5.33375 14.8581C5.59669 15.8425 5.10781 17.1394 5.60631 18.0012C6.11245 18.875 7.4837 19.0938 8.19245 19.8062C8.90182 20.5156 9.12308 21.8875 9.99745 22.3937C10.8593 22.8924 12.1556 22.4036 13.14 22.6668C14.0937 22.9188 14.9687 24 16 24C17.0312 24 17.9075 22.9206 18.8587 22.6663C19.8431 22.4032 21.1393 22.8923 22.0012 22.3938C22.875 21.8883 23.0968 20.5163 23.8062 19.8069C24.5156 19.0976 25.8875 18.8769 26.3931 18.0026C26.8918 17.1407 26.4034 15.8438 26.6664 14.8594C26.9187 13.9062 27.9437 13.0312 27.9437 12ZM16 17C13.2375 17 10.9999 14.7625 10.9999 12C10.9999 9.23312 13.2381 7 16 7C18.7618 7 21 9.23312 21 12C21 14.7625 18.7625 17 16 17Z" fill="white"/>
<path opacity="0.4" d="M9.99755 22.3973C9.1238 21.8911 8.90193 20.5161 8.19255 19.8098C7.95743 19.5746 7.6448 19.3961 7.31943 19.2266L4.10693 27.0828C3.9038 27.5946 3.99562 28.1753 4.34912 28.5984C4.70262 29.0203 5.25724 29.2171 5.79412 29.1077L8.61849 28.543L9.95787 31.1849C10.2163 31.6911 10.7251 32.0036 11.2938 32.0036C11.3153 32.0036 11.3353 32.0028 11.3568 32.0019C11.9506 31.9784 12.4599 31.6217 12.6843 31.0719L15.6256 23.9156C14.7537 23.7052 13.9731 22.8906 13.1406 22.6681C12.1563 22.4036 10.8563 22.8973 9.99755 22.3973ZM27.8938 27.0786L24.6819 19.2286C24.356 19.3984 24.0426 19.5769 23.8069 19.8126C23.0982 20.5219 22.8763 21.8938 22.0019 22.3994C21.1401 22.898 19.8438 22.4088 18.8594 22.6719C18.0276 22.8942 17.2469 23.7081 16.3757 23.9188L19.3169 31.075C19.5416 31.6248 20.0507 31.9813 20.6444 32.005C20.6626 31.9473 20.6313 32.0036 20.7063 32.0036C21.2747 32.0036 21.7832 31.6927 22.0407 31.1823L23.3801 28.5398L26.2044 29.1045C26.7416 29.2139 27.2963 29.0171 27.6494 28.5953C28.0063 28.1723 28.0938 27.5911 27.8938 27.0786Z" fill="white"/>
</g>
<defs>
<clipPath id="clip0_1552_1802">
<rect width="32" height="32" fill="white"/>
</clipPath>
</defs>
</svg>
