<svg width="1280" height="404" viewBox="0 0 1280 404" fill="none" xmlns="http://www.w3.org/2000/svg">
<g clip-path="url(#clip0_1552_2929)">
<path d="M632.477 333.317V462.121C632.499 465 631.949 467.855 630.858 470.519C629.767 473.184 628.158 475.605 626.124 477.641C624.089 479.677 621.671 481.287 619.009 482.379C616.347 483.471 613.494 484.021 610.617 483.999C598.86 483.999 588.758 473.849 588.758 462.121V333.317C588.758 320.945 597.899 311.438 610.617 311.438C613.494 311.417 616.346 311.968 619.008 313.06C621.669 314.152 624.087 315.763 626.122 317.799C628.156 319.835 629.765 322.255 630.856 324.919C631.947 327.583 632.498 330.438 632.477 333.317" stroke="#9A4292" stroke-width="3.97965" stroke-linecap="round" stroke-linejoin="round"/>
<path fill-rule="evenodd" clip-rule="evenodd" d="M740.887 174.77C738.69 177 736.074 178.773 733.19 179.988C730.216 181.259 727.02 181.93 723.786 181.962C720.552 181.995 717.344 181.388 714.345 180.176C711.346 178.964 708.615 177.172 706.31 174.902C704.005 172.632 702.17 169.928 700.911 166.947C696.936 157.665 698.738 146.746 705.892 139.592C718.298 127.185 726.442 111.152 729.148 93.8097C731.853 76.467 728.981 58.7123 720.944 43.1107C712.908 27.5091 700.124 14.8682 684.44 7.01433C668.756 -0.839557 650.983 -3.49985 633.689 -0.582256C628.211 0.343948 622.58 -0.603092 617.705 -3.27075C612.83 -5.93841 608.994 -10.1713 606.815 -15.2872C600.231 -30.7215 608.213 -46.4939 624.701 -49.3977C683.847 -59.7867 744.504 -28.5933 769.106 29.0332C779.494 53.3657 782.358 80.2557 777.328 106.233C772.298 132.211 759.605 156.083 740.887 174.77V174.77Z" stroke="#9A4292" stroke-width="3.97965" stroke-linecap="round" stroke-linejoin="round"/>
<path fill-rule="evenodd" clip-rule="evenodd" d="M454.905 392.311C454.335 395.381 453.17 398.309 451.474 400.93C449.732 403.657 447.47 406.013 444.817 407.863C442.164 409.712 439.173 411.02 436.014 411.71C432.855 412.4 429.59 412.458 426.409 411.883C423.227 411.307 420.19 410.108 417.472 408.355C408.96 402.952 404.317 392.881 406.211 382.937C409.492 365.693 407.211 347.852 399.698 331.991C392.185 316.129 379.828 303.07 364.412 294.698C348.997 286.326 331.322 283.076 313.94 285.417C296.558 287.758 280.37 295.569 267.714 307.721C263.707 311.569 258.523 313.956 252.995 314.497C247.468 315.038 241.92 313.702 237.244 310.705V310.705C223.128 301.648 220.856 284.112 232.878 272.417C275.935 230.517 343.613 222.143 396.328 255.936C418.59 270.206 436.069 290.825 446.51 315.134C456.951 339.442 459.875 366.324 454.905 392.311V392.311Z" stroke="#9A4292" stroke-width="3.97965" stroke-linecap="round" stroke-linejoin="round"/>
<path fill-rule="evenodd" clip-rule="evenodd" d="M510.212 217.69C509.436 214.66 509.247 211.51 509.655 208.409C512.389 187.345 520.137 167.246 532.246 149.802C544.355 132.358 560.472 118.079 579.242 108.166C582.56 106.429 586.228 105.466 589.971 105.348C593.714 105.231 597.435 105.962 600.855 107.487C604.276 109.013 607.308 111.292 609.724 114.156C612.14 117.02 613.877 120.393 614.806 124.024C616.202 129.406 615.741 135.102 613.499 140.189C611.257 145.277 607.364 149.458 602.452 152.055C590.714 158.243 580.631 167.159 573.049 178.055C565.467 188.951 560.607 201.509 558.879 214.674C557.554 224.711 550.016 232.826 540.212 235.352C533.895 236.973 527.193 236.024 521.572 232.715C515.951 229.406 511.866 224.004 510.212 217.69V217.69Z" stroke="#9A4292" stroke-width="3.97965" stroke-linecap="round" stroke-linejoin="round"/>
<path fill-rule="evenodd" clip-rule="evenodd" d="M308.122 -6.13279C310.69 -4.34523 312.893 -2.08381 314.614 0.530191C326.305 18.2574 333.573 38.5348 335.807 59.6578C338.041 80.7807 335.175 102.132 327.451 121.916C326.074 125.401 323.927 128.529 321.171 131.067C318.415 133.605 315.121 135.486 311.536 136.57C307.952 137.654 304.168 137.912 300.47 137.326C296.771 136.741 293.253 135.325 290.177 133.187V133.187C285.606 130.026 282.234 125.414 280.608 120.097C278.981 114.78 279.195 109.069 281.215 103.889C286.053 91.5256 287.856 78.1805 286.473 64.9748C285.09 51.7691 280.561 39.0883 273.266 27.9976C267.695 19.5512 268.112 8.45947 273.882 0.152285C277.6 -5.21266 283.289 -8.88569 289.706 -10.0635C296.122 -11.2413 302.744 -9.82804 308.122 -6.13279V-6.13279Z" stroke="#9A4292" stroke-width="3.97965" stroke-linecap="round" stroke-linejoin="round"/>
<path fill-rule="evenodd" clip-rule="evenodd" d="M831.173 519.09C828.088 519.567 824.94 519.45 821.899 518.746C801.22 513.97 781.988 504.297 765.82 490.538C749.651 476.78 737.018 459.338 728.983 439.678C727.58 436.205 726.979 432.459 727.226 428.721C727.473 424.983 728.56 421.349 730.407 418.09C732.255 414.832 734.814 412.033 737.894 409.904C740.973 407.775 744.494 406.369 748.193 405.793V405.793C753.681 404.928 759.301 405.941 764.142 408.67C768.983 411.399 772.763 415.684 774.868 420.83C779.881 433.124 787.768 444.034 797.866 452.646C807.964 461.258 819.979 467.319 832.902 470.321C842.752 472.596 850.091 480.929 851.648 490.92C852.648 497.371 851.055 503.955 847.218 509.234C843.382 514.513 837.613 518.057 831.173 519.09V519.09Z" stroke="#9A4292" stroke-width="3.97965" stroke-linecap="round" stroke-linejoin="round"/>
<path d="M182.224 -108.99C182.224 -109.122 182.185 -109.242 182.165 -109.374C182.145 -109.507 182.165 -109.626 182.118 -109.752C170.95 -181.646 103.841 -231.118 31.8508 -220.338C5.70076 -216.426 -18.6784 -204.762 -38.1422 -186.85C-57.606 -168.939 -71.2616 -145.602 -77.3476 -119.849C-78.2865 -115.928 -78.2466 -111.835 -77.2315 -107.933C-76.2163 -104.03 -74.2571 -100.438 -71.5268 -97.4728C-68.7964 -94.5075 -65.3787 -92.2603 -61.5754 -90.9296C-57.7721 -89.5989 -53.7 -89.2256 -49.7184 -89.8426C-39.716 -91.341 -31.3895 -98.6404 -29.0446 -108.492C-24.6819 -127.145 -13.9597 -143.692 1.27676 -155.287C16.5133 -166.881 35.3111 -172.798 54.4356 -172.019C73.5601 -171.239 91.8151 -163.812 106.059 -151.016C120.303 -138.22 129.645 -120.855 132.478 -101.909C135.311 -82.9628 131.457 -63.6211 121.58 -47.212C111.703 -30.8029 96.4202 -18.3526 78.3616 -12.0037C60.303 -5.65483 40.5981 -5.80437 22.6378 -12.4266C4.67742 -19.0489 -10.415 -31.7297 -20.0425 -48.2868C-22.6 -52.5383 -26.366 -55.93 -30.8592 -58.0286C-35.3523 -60.1271 -40.3686 -60.8372 -45.267 -60.068C-49.2497 -59.4873 -53.0288 -57.9359 -56.2719 -55.5504C-59.515 -53.1648 -62.1227 -50.0182 -63.8656 -46.3872C-65.6085 -42.7563 -66.4332 -38.7523 -66.2672 -34.7275C-66.1012 -30.7027 -64.9496 -26.7804 -62.9136 -23.3056C-49.5629 -0.462412 -29.6802 17.8534 -5.83016 29.2794C18.0199 40.7055 44.7433 44.7176 70.8932 40.7983C142.884 30.0182 192.585 -36.9498 182.238 -108.963" stroke="#9A4292" stroke-width="3.97965" stroke-linecap="round" stroke-linejoin="round"/>
<path d="M851.953 358.917C867.633 358.917 880.344 346.195 880.344 330.501C880.344 314.808 867.633 302.086 851.953 302.086C836.274 302.086 823.562 314.808 823.562 330.501C823.562 346.195 836.274 358.917 851.953 358.917Z" stroke="#9A4292" stroke-width="3.97965" stroke-linecap="round" stroke-linejoin="round"/>
<path d="M470.16 63.5809C485.84 63.5809 498.551 50.8589 498.551 35.1655C498.551 19.472 485.84 6.75 470.16 6.75C454.481 6.75 441.77 19.472 441.77 35.1655C441.77 50.8589 454.481 63.5809 470.16 63.5809Z" stroke="#9A4292" stroke-width="3.97965" stroke-linecap="round" stroke-linejoin="round"/>
<path d="M1320.81 149.108H1192.11C1189.24 149.131 1186.38 148.58 1183.72 147.488C1181.06 146.396 1178.64 144.786 1176.61 142.75C1174.57 140.714 1172.96 138.293 1171.87 135.629C1170.78 132.964 1170.23 130.109 1170.25 127.23C1170.25 115.462 1180.4 105.352 1192.11 105.352H1320.81C1333.17 105.352 1342.67 114.501 1342.67 127.23C1342.69 130.109 1342.14 132.964 1341.05 135.628C1339.95 138.292 1338.35 140.712 1336.31 142.748C1334.28 144.783 1331.86 146.394 1329.2 147.486C1326.54 148.578 1323.68 149.13 1320.81 149.108" stroke="#9A4292" stroke-width="3.97965" stroke-linecap="round" stroke-linejoin="round"/>
<path fill-rule="evenodd" clip-rule="evenodd" d="M876.681 178.157C873.384 175.844 870.707 172.754 868.887 169.16C867.066 165.566 866.159 161.579 866.244 157.55C866.329 153.521 867.404 149.576 869.375 146.062C871.345 142.548 874.151 139.574 877.542 137.403C886.034 131.887 897.123 131.814 905.363 137.649C915.224 144.615 926.489 149.334 938.367 151.475C950.246 153.616 962.448 153.125 974.117 150.039C985.786 146.952 996.637 141.344 1005.91 133.61C1015.18 125.875 1022.64 116.201 1027.78 105.268C1030.13 100.136 1034.16 95.9545 1039.19 93.4095C1044.23 90.8646 1049.98 90.1066 1055.51 91.2595C1071.28 94.6275 1079.54 111.845 1072.67 126.457C1062.19 148.768 1045.66 167.69 1024.97 181.074C978.295 211.425 919.579 208.495 876.681 178.157Z" stroke="#9A4292" stroke-width="3.97965" stroke-linecap="round" stroke-linejoin="round"/>
<path fill-rule="evenodd" clip-rule="evenodd" d="M1238.68 509.401C1237.9 506.372 1237.71 503.221 1238.12 500.12C1240.85 479.059 1248.59 458.963 1260.7 441.52C1272.8 424.077 1288.91 409.795 1307.67 399.876C1310.99 398.14 1314.66 397.177 1318.4 397.059C1322.14 396.942 1325.87 397.673 1329.29 399.198C1332.71 400.723 1335.74 403.003 1338.16 405.867C1340.57 408.73 1342.31 412.104 1343.24 415.735V415.735C1344.64 421.118 1344.18 426.814 1341.93 431.902C1339.69 436.989 1335.8 441.17 1330.88 443.766C1319.14 449.955 1309.06 458.871 1301.48 469.767C1293.9 480.663 1289.04 493.22 1287.31 506.385C1285.98 516.422 1278.45 524.537 1268.65 527.063C1262.34 528.677 1255.64 527.726 1250.03 524.417C1244.41 521.108 1240.33 515.71 1238.68 509.401V509.401Z" stroke="#9A4292" stroke-width="3.97965" stroke-linecap="round" stroke-linejoin="round"/>
<path fill-rule="evenodd" clip-rule="evenodd" d="M1036.61 285.583C1039.17 287.358 1041.37 289.608 1043.09 292.213C1054.78 309.939 1062.05 330.215 1064.29 351.337C1066.52 372.459 1063.65 393.809 1055.93 413.592C1054.55 417.076 1052.4 420.204 1049.65 422.741C1046.89 425.277 1043.6 427.158 1040.02 428.242C1036.43 429.326 1032.65 429.585 1028.95 429C1025.26 428.415 1021.74 427 1018.66 424.863V424.863C1014.09 421.703 1010.72 417.091 1009.09 411.774C1007.46 406.457 1007.68 400.746 1009.7 395.566C1014.53 383.2 1016.34 369.855 1014.95 356.648C1013.57 343.442 1009.04 330.761 1001.75 319.667C996.18 311.221 996.597 300.136 1002.36 291.822C1006.09 286.465 1011.78 282.803 1018.2 281.634C1024.61 280.465 1031.23 281.885 1036.61 285.583V285.583Z" stroke="#9A4292" stroke-width="3.97965" stroke-linecap="round" stroke-linejoin="round"/>
<path fill-rule="evenodd" clip-rule="evenodd" d="M1169.74 23.3881C1166.66 23.8643 1163.51 23.7473 1160.47 23.0433C1139.79 18.27 1120.55 8.5968 1104.38 -5.16319C1088.21 -18.9232 1075.57 -36.3678 1067.53 -56.0307C1066.13 -59.504 1065.53 -63.2498 1065.78 -66.988C1066.02 -70.7263 1067.11 -74.3604 1068.96 -77.6189C1070.81 -80.8773 1073.36 -83.6758 1076.44 -85.8052C1079.52 -87.9345 1083.04 -89.3398 1086.74 -89.9158V-89.9158C1092.23 -90.7843 1097.85 -89.7726 1102.69 -87.0447C1107.53 -84.3168 1111.31 -80.0324 1113.42 -74.886C1118.43 -62.5913 1126.32 -51.6795 1136.42 -43.0666C1146.51 -34.4537 1158.53 -28.3911 1171.45 -25.3876C1181.3 -23.1136 1188.68 -14.7799 1190.2 -4.78874C1191.2 1.65996 1189.61 8.2435 1185.78 13.5232C1181.95 18.8029 1176.18 22.3496 1169.74 23.3881V23.3881Z" stroke="#9A4292" stroke-width="3.97965" stroke-linecap="round" stroke-linejoin="round"/>
<path d="M1198.64 355.292C1214.32 355.292 1227.04 342.57 1227.04 326.876C1227.04 311.183 1214.32 298.461 1198.64 298.461C1182.96 298.461 1170.25 311.183 1170.25 326.876C1170.25 342.57 1182.96 355.292 1198.64 355.292Z" stroke="#9A4292" stroke-width="3.97965" stroke-linecap="round" stroke-linejoin="round"/>
<path d="M111.864 162.143C127.543 162.143 140.254 149.421 140.254 133.728C140.254 118.035 127.543 105.312 111.864 105.312C96.1837 105.312 83.4727 118.035 83.4727 133.728C83.4727 149.421 96.1837 162.143 111.864 162.143Z" stroke="#9A4292" stroke-width="3.97965" stroke-linecap="round" stroke-linejoin="round"/>
<path fill-rule="evenodd" clip-rule="evenodd" d="M-33.7755 311.262V375.95C-33.7755 388.162 -42.0225 397.742 -54.2241 397.742C-66.0879 397.715 -74.6992 388.168 -74.6992 375.923V282.847C-74.6992 266.67 -64.4716 255.446 -49.9648 255.446C-43.0024 255.409 -36.2848 258.015 -31.1656 262.739L58.8956 341.925V280.864C58.8956 268.652 66.8114 259.41 79.0064 259.41C90.8834 259.41 99.455 268.652 99.455 280.864V370.646C99.455 382.858 94.1557 391.112 83.2988 395.402C73.0778 399.035 63.5126 397.052 54.2787 388.772L-33.7755 311.262Z" stroke="#9A4292" stroke-width="3.97965" stroke-linecap="round" stroke-linejoin="round"/>
<path fill-rule="evenodd" clip-rule="evenodd" d="M850.206 -242.468L802.334 -198.983C793.299 -190.769 780.673 -190.444 772.466 -199.487C764.517 -208.285 765.842 -221.074 774.844 -229.282L843.708 -291.854C855.671 -302.727 870.867 -302.694 880.604 -291.947C885.325 -286.827 887.929 -280.105 887.891 -273.138L889.772 -46.623L934.935 -87.6683C943.97 -95.8827 956.132 -96.234 964.333 -87.1909C972.315 -78.3932 971.242 -65.823 962.207 -57.6153L895.8 2.71623C886.765 10.9306 877.113 12.5682 866.621 7.39027C857.062 2.25215 852.101 -6.16774 851.995 -18.5523L850.18 -242.488L850.206 -242.468Z" stroke="#9A4292" stroke-width="3.97965" stroke-linecap="round" stroke-linejoin="round"/>
</g>
<defs>
<clipPath id="clip0_1552_2929">
<rect width="1280" height="404" fill="white"/>
</clipPath>
</defs>
</svg>
