<svg width="32" height="32" viewBox="0 0 32 32" fill="none" xmlns="http://www.w3.org/2000/svg">
<path d="M8 19.1984C10.651 19.1984 12.8 17.0494 12.8 14.3984C12.8 11.7474 10.651 9.59844 8 9.59844C5.305 9.59844 3.2 11.7034 3.2 14.3984C3.2 17.0484 5.305 19.1984 8 19.1984ZM9.6 20.7984H6.4C2.8655 20.7984 0 23.6639 0 27.1984C0 28.0819 0.7165 28.7984 1.6 28.7984H14.4C15.2835 28.7984 16 28.0819 16 27.1984C16 23.6634 13.135 20.7984 9.6 20.7984ZM11.2 6.39844V8.88894C13.105 9.99844 14.4 12.0384 14.4 14.3984C14.4 16.4889 13.393 18.3034 11.838 19.5184C12.765 19.7884 13.61 20.2334 14.365 20.7984H19.1995V18.3984C19.1995 17.9565 19.5577 17.5984 19.9995 17.5984H24.7995C25.2413 17.5984 25.5995 17.9565 25.5995 18.3984V20.7984H28.7995V6.39844H11.2Z" fill="#212121" fill-opacity="0.6"/>
<path opacity="0.4" d="M29.6 3.20312H10.4C9.075 3.20312 8 4.31563 8 5.68462V8.00312C9.171 8.00312 10.255 8.34217 11.155 8.89362V6.40312H28.755V20.8031H14.365C15.4685 21.6271 16.342 22.7281 16.903 24.0031H29.598C30.925 24.0031 32 22.8931 32 21.5231V5.68462C32 4.31563 30.925 3.20312 29.6 3.20312Z" fill="#212121"/>
</svg>
