<svg width="32" height="32" viewBox="0 0 32 32" fill="none" xmlns="http://www.w3.org/2000/svg">
<path d="M15.6227 16.7045C14.8734 16.7045 14.25 17.3301 14.25 18.1313C14.25 18.9325 14.8734 19.5581 15.6227 19.5581C16.4703 19.5581 17.0938 18.9325 17.0938 18.1313C17.0938 17.3301 16.4703 16.7045 15.6227 16.7045ZM17.1867 7.26562H14.8133C13.0359 7.26562 11.625 8.67048 11.625 10.4375C11.625 11.0269 12.1263 11.5257 12.7188 11.5257C13.3112 11.5257 13.8125 11.0302 13.8125 10.4375C13.8125 9.89347 14.2683 9.4404 14.8149 9.4404H17.1845C17.7314 9.4404 18.187 9.89369 18.187 10.4375C18.187 10.8001 18.0046 11.1174 17.6857 11.2991L15.0867 12.8411C14.7221 13.0678 14.5398 13.4305 14.5398 13.7932V14.5187C14.5398 15.1081 15.0411 15.6069 15.6336 15.6069C16.2259 15.6069 16.7273 15.1082 16.7273 14.5187V14.4271L18.8235 13.1578C19.7844 12.5722 20.375 11.5296 20.375 10.4375C20.375 8.67048 18.9641 7.26562 17.1867 7.26562Z" fill="white"/>
<path opacity="0.4" d="M26.5 2H5.5C3.5657 2 2 3.57058 2 5.46274V21.2179C2 23.2594 3.5657 24.7795 5.5 24.7795H10.75V29.3397C10.75 29.8815 11.3652 30.1914 11.7956 29.8692L18.625 24.7795H26.5C28.4348 24.7795 30 23.2083 30 21.3167V5.46274C30 3.57058 28.4359 2 26.5 2ZM15.6227 19.5606C14.8734 19.5606 14.25 18.9351 14.25 18.1338C14.25 17.3326 14.8734 16.707 15.6227 16.707C16.4703 16.707 17.0938 17.3326 17.0938 18.1338C17.0938 18.9351 16.4703 19.5606 15.6227 19.5606ZM18.8273 13.162L16.7312 14.4313V14.522C16.7312 15.1113 16.2298 15.6102 15.6374 15.6102C15.0452 15.6102 14.5437 15.1114 14.5437 14.522V13.7492C14.5437 13.3865 14.7259 13.0237 15.0905 12.7971L17.6882 11.2556C18.007 11.1206 18.1875 10.8023 18.1875 10.4401C18.1875 9.89604 17.7317 9.44297 17.1851 9.44297H14.8133C14.2664 9.44297 13.8109 9.89626 13.8109 10.4401C13.8109 11.0295 13.3096 11.5283 12.7171 11.5283C12.1246 11.5283 11.625 11.0328 11.625 10.4401C11.625 8.67305 13.0359 7.2682 14.8133 7.2682H17.1829C18.9641 7.2682 20.375 8.67305 20.375 10.4401C20.375 11.5321 19.7844 12.5748 18.8273 13.162Z" fill="white"/>
</svg>
