<svg width="32" height="32" viewBox="0 0 32 32" fill="none" xmlns="http://www.w3.org/2000/svg">
<path d="M17.5188 15.004H21.5001C21.9251 15.004 22.3001 15.2665 22.4438 15.6665C22.5813 16.0102 22.4626 16.5102 22.1376 16.779L13.6376 23.779C13.2813 24.0665 12.7688 24.079 12.4001 23.804C12.0313 23.529 11.9001 23.0352 12.0813 22.6102L14.4813 16.9477H10.5001C10.0751 16.9477 9.70009 16.7415 9.55634 16.3415C9.41884 15.9415 9.53759 15.4977 9.86259 15.229L18.3626 8.22896C18.7188 7.88521 19.2313 7.92896 19.6001 8.20396C19.9688 8.47896 20.1001 8.97271 19.9188 9.39771L17.5188 15.004Z" fill="#EFA929"/>
<path opacity="0.4" d="M26 2C28.2062 2 30 3.79063 30 6V26C30 28.2062 28.2062 30 26 30H6C3.79063 30 2 28.2062 2 26V6C2 3.79063 3.79063 2 6 2H26ZM18.3625 8.225L9.8625 15.225C9.5375 15.4938 9.41875 15.9375 9.55625 16.3375C9.7 16.7375 10.075 16.9438 10.5 16.9438H14.4812L12.0813 22.6063C11.9 23.0312 12.0312 23.525 12.4 23.8C12.7687 24.075 13.2812 24.0625 13.6375 23.775L22.1375 16.775C22.4625 16.5062 22.5813 16.0063 22.4438 15.6625C22.3 15.2625 21.925 15 21.5 15H17.5188L19.9188 9.39375C20.1 8.96875 19.9688 8.475 19.6 8.2C19.2313 7.925 18.7188 7.88125 18.3625 8.225Z" fill="#EFA929"/>
</svg>
