<svg width="24" height="24" viewBox="0 0 24 24" fill="none" xmlns="http://www.w3.org/2000/svg">
<path d="M3.6 4.875H20.4V10.8125C21.3233 10.8125 22.1625 11.1697 22.8 11.7402V4.34174C22.8 3.32568 21.9938 2.5 21 2.5H3C2.00625 2.5 1.2 3.32568 1.2 4.34174V11.7413C1.8375 11.1706 2.67675 10.8136 3.6 10.8136V4.875ZM9.6075 14.375C9.6075 15.6835 10.6789 16.7444 11.9996 16.7493C13.32 16.7426 14.3925 15.685 14.3925 14.375C14.3925 13.065 13.32 12.0074 12 12C10.68 12.0074 9.6075 13.065 9.6075 14.375ZM12.8925 17.9375H11.1112C9.615 17.9375 8.4 19.1807 8.4 20.7096C8.4 21.1438 8.74875 21.5 9.18 21.5H14.8163C15.2513 21.5 15.6 21.1438 15.6 20.7096C15.6 19.1807 14.385 17.9375 12.8925 17.9375ZM21.2925 17.9375H19.5112C18.015 17.9375 16.8 19.1807 16.8 20.7096C16.8 21.1438 17.1488 21.5 17.58 21.5H23.2162C23.6513 21.5 24 21.1438 24 20.7096C24 19.1807 22.785 17.9375 21.2925 17.9375ZM18.0075 14.375C18.0075 15.6835 19.0789 16.7444 20.3996 16.7493C21.72 16.7426 22.7925 15.685 22.7925 14.375C22.7925 13.065 21.72 12.0074 20.4 12C19.08 12.0074 18.0075 13.065 18.0075 14.375ZM1.20788 14.375C1.20788 15.6835 2.27925 16.7444 3.6 16.7493C4.92 16.7426 5.9925 15.685 5.9925 14.375C5.9925 13.065 4.92 12.0074 3.6 12C2.27925 12.0074 1.20788 13.065 1.20788 14.375ZM4.4925 17.9375H2.71125C1.21575 17.9375 0 19.1807 0 20.7096C0 21.1438 0.35025 21.5 0.781125 21.5H6.41738C6.85125 21.5 7.2 21.1438 7.2 20.7096C7.2 19.1807 5.985 17.9375 4.4925 17.9375Z" fill="#9A4292"/>
</svg>
