<svg width="24" height="24" viewBox="0 0 24 24" fill="none" xmlns="http://www.w3.org/2000/svg">
<path d="M12 6.99999C12.33 6.99999 12.6 7.28124 12.6 7.62499V8.24999H13.2C13.53 8.24999 13.8 8.53124 13.8 8.87499C13.8 9.21874 13.53 9.49999 13.2 9.49999H12C11.67 9.49999 11.4 9.21874 11.4 8.87499V7.62499C11.4 7.28124 11.67 6.99999 12 6.99999ZM17.88 5.83046L22.59 6.88671C23.415 7.11327 24 7.87108 24 8.74999V20.125C24 21.1601 23.1938 22 22.2 22H1.8C0.805875 22 0 21.1601 0 20.125V8.74999C0 7.87108 0.586125 7.11327 1.40963 6.88671L6.12 5.83046L11.3325 2.20991C11.7038 1.93003 12.2625 1.93003 12.6675 2.20991L17.88 5.83046ZM9.6 22H14.4V18.25C14.4 16.8711 13.3238 15.75 12 15.75C10.6763 15.75 9.6 16.8711 9.6 18.25V22ZM3.6 9.49999C3.2685 9.49999 3 9.78124 3 10.125V12.625C3 12.9687 3.2685 13.25 3.6 13.25H4.8C5.13 13.25 5.4 12.9687 5.4 12.625V10.125C5.4 9.78124 5.13 9.49999 4.8 9.49999H3.6ZM18.6 12.625C18.6 12.9687 18.87 13.25 19.2 13.25H20.4C20.73 13.25 21 12.9687 21 12.625V10.125C21 9.78124 20.73 9.49999 20.4 9.49999H19.2C18.87 9.49999 18.6 9.78124 18.6 10.125V12.625ZM3.6 14.5C3.2685 14.5 3 14.7812 3 15.125V17.625C3 17.9687 3.2685 18.25 3.6 18.25H4.8C5.13 18.25 5.4 17.9687 5.4 17.625V15.125C5.4 14.7812 5.13 14.5 4.8 14.5H3.6ZM18.6 17.625C18.6 17.9687 18.87 18.25 19.2 18.25H20.4C20.73 18.25 21 17.9687 21 17.625V15.125C21 14.7812 20.73 14.5 20.4 14.5H19.2C18.87 14.5 18.6 14.7812 18.6 15.125V17.625ZM12 5.43749C10.1775 5.43749 8.7 6.97655 8.7 8.87499C8.7 10.7734 10.1775 12.3125 12 12.3125C13.8225 12.3125 15.3 10.7734 15.3 8.87499C15.3 6.97655 13.8225 5.43749 12 5.43749Z" fill="#2D9DA6"/>
</svg>
