<svg width="24" height="24" viewBox="0 0 24 24" fill="none" xmlns="http://www.w3.org/2000/svg">
<path d="M6.375 14.2445C8.23898 14.2445 9.75 12.7331 9.75 10.8686C9.75 9.00415 8.23898 7.49275 6.375 7.49275C4.48008 7.49275 3 8.97321 3 10.8686C3 12.7324 4.48008 14.2445 6.375 14.2445ZM7.5 15.3697H5.25C2.7648 15.3697 0.75 17.3851 0.75 19.8709C0.75 20.4922 1.25379 20.9962 1.875 20.9962H10.875C11.4962 20.9962 12 20.4922 12 19.8709C12 17.3847 9.98555 15.3697 7.5 15.3697ZM8.625 5.24219V6.99376C9.96445 7.77408 10.875 9.20881 10.875 10.8686C10.875 12.3389 10.167 13.615 9.07359 14.4695C9.72539 14.6594 10.3195 14.9724 10.8504 15.3697H14.2496V13.6818C14.2496 13.371 14.5015 13.1192 14.8121 13.1192H18.1871C18.4978 13.1192 18.7496 13.371 18.7496 13.6818V15.3697H20.9996V5.24219H8.625Z" fill="#EFA929"/>
<path opacity="0.4" d="M21.5625 3H8.0625C7.13086 3 6.375 3.78242 6.375 4.74524V6.37585C7.19836 6.37585 7.96055 6.61431 8.59336 7.00214V5.25057H20.9684V15.3781H10.8504C11.6263 15.9576 12.2405 16.732 12.6349 17.6287H21.5611C22.4941 17.6287 23.25 16.848 23.25 15.8845V4.74524C23.25 3.78242 22.4941 3 21.5625 3Z" fill="#EFA929"/>
</svg>
