<svg width="24" height="24" viewBox="0 0 24 24" fill="none" xmlns="http://www.w3.org/2000/svg">
<path d="M23.675 15.4504C23.1283 14.6851 22.0858 14.5197 21.3446 15.0865L16.3571 18.875H11.3321C10.9676 18.875 10.7029 18.5635 10.7029 18.188C10.7029 17.812 11.005 17.5005 11.3321 17.5005H14.5925C15.2217 17.5005 15.8738 17.033 15.9829 16.3566C16.1183 15.4973 15.4779 14.7505 14.6654 14.7505H7.9625C6.875 14.7505 5.74917 15.1479 4.87417 15.8784L2.93667 17.5L0.629167 17.4613C0.302125 17.4613 0 17.8137 0 18.1875V22.3116C0 22.6906 0.302125 23 0.629167 23H15.05C15.9679 23 16.88 22.6911 17.6208 22.129L23.25 17.8528C24.0625 17.2895 24.2208 16.2152 23.675 15.4504ZM11.6375 8.51953C11.3208 8.47227 10.9042 8.31758 10.5375 8.18008L10.3333 8.10703C9.8125 7.8793 9.24167 8.19727 9.05833 8.6957C8.875 9.19414 9.14671 9.82148 9.66625 10.0123L9.86021 10.0834C10.2138 10.2149 10.6052 10.3453 11.0015 10.4406V10.9688C11.0015 11.5381 11.4485 12 12.0006 12C12.5527 12 13.0006 11.5381 13.0006 10.9688V10.5219C14.0535 10.276 14.7873 9.58301 14.9215 8.55734C15.2835 6.40676 13.301 5.82195 12.2373 5.50871L12.0167 5.43008C10.9208 5.10953 10.9833 4.97117 11.0125 4.79457C11.0607 4.50384 11.65 4.3623 12.3546 4.47699C12.5603 4.51056 12.8283 4.58643 13.1733 4.70996C13.6954 4.89391 14.2654 4.61062 14.445 4.07231C14.6246 3.534 14.3488 2.94696 13.8267 2.76047C13.5099 2.64759 13.2467 2.57321 13.0008 2.51465V2.03125C13.0008 1.46191 12.5529 1 12.0008 1C11.4487 1 11.0017 1.46191 11.0017 2.03125V2.48328C9.95 2.72863 9.2125 3.41699 9.00417 4.44309C8.68333 6.56875 10.6958 7.17891 11.4542 7.41094L11.7249 7.4915C13.0441 7.88089 13.0228 8.0024 12.9891 8.2065C12.9417 8.49805 12.3542 8.63984 11.6375 8.51953Z" fill="#2D70AE"/>
</svg>
