<svg width="24" height="24" viewBox="0 0 24 24" fill="none" xmlns="http://www.w3.org/2000/svg">
<path d="M0 6V20.25C0 21.4922 1.00734 22.5 2.25 22.5C3.49266 22.5 4.5 21.4922 4.5 20.25V4.5H1.5C0.671719 4.5 0 5.17031 0 6ZM12.75 13.5H8.25C7.8375 13.5 7.5 13.8375 7.5 14.25C7.5 14.6625 7.8375 15 8.25 15H12.75C13.1642 15 13.5 14.6642 13.5 14.25C13.5 13.8375 13.1625 13.5 12.75 13.5ZM15.75 15H20.25C20.6642 15 21 14.6642 21 14.25C21 13.8375 20.6625 13.5 20.25 13.5H15.75C15.3375 13.5 15 13.8375 15 14.25C15 14.6625 15.3375 15 15.75 15ZM12.75 18H8.25C7.8375 18 7.5 18.3375 7.5 18.75C7.5 19.1625 7.8375 19.5 8.25 19.5H12.75C13.1642 19.5 13.5 19.1642 13.5 18.75C13.5 18.3375 13.1625 18 12.75 18ZM20.25 18H15.75C15.3358 18 15 18.3357 15 18.75C15 19.1642 15.3358 19.5 15.75 19.5H20.25C20.6642 19.5 21 19.1642 21 18.75C21 18.3375 20.6625 18 20.25 18Z" fill="#EFA929"/>
<path opacity="0.4" d="M22.5 1.5H6C5.17031 1.5 4.5 2.17172 4.5 3V20.25C4.5 21.4922 3.49266 22.5 2.25 22.5H21C22.657 22.5 24 21.157 24 19.5V3C24 2.17172 23.3297 1.5 22.5 1.5ZM12.75 19.5H8.25C7.8375 19.5 7.5 19.1625 7.5 18.75C7.5 18.3375 7.8375 18 8.25 18H12.75C13.1642 18 13.5 18.3357 13.5 18.75C13.5 19.1625 13.1625 19.5 12.75 19.5ZM12.75 15H8.25C7.8375 15 7.5 14.6625 7.5 14.25C7.5 13.8375 7.8375 13.5 8.25 13.5H12.75C13.1625 13.5 13.5 13.8375 13.5 14.25C13.5 14.6625 13.1625 15 12.75 15ZM20.25 19.5H15.75C15.3358 19.5 15 19.1642 15 18.75C15 18.3357 15.3358 18 15.75 18H20.25C20.6642 18 21 18.3357 21 18.75C21 19.1625 20.6625 19.5 20.25 19.5ZM20.25 15H15.75C15.3375 15 15 14.6625 15 14.25C15 13.8375 15.3375 13.5 15.75 13.5H20.25C20.6625 13.5 21 13.8375 21 14.25C21 14.6625 20.6625 15 20.25 15ZM21 9.75C21 10.1625 20.6625 10.5 20.25 10.5H8.25C7.8375 10.5 7.5 10.1625 7.5 9.75V5.25C7.5 4.8375 7.8375 4.5 8.25 4.5H20.25C20.6625 4.5 21 4.8375 21 5.25V9.75Z" fill="#EFA929"/>
</svg>
