<svg width="24" height="24" viewBox="0 0 24 24" fill="none" xmlns="http://www.w3.org/2000/svg">
<g clip-path="url(#clip0_3512_2339)">
<path d="M18 0V6H24L18 0ZM11.5968 11.3578C11.0718 10.8234 10.9828 10.7578 10.8609 10.35C10.8187 10.2141 10.7765 10.0406 10.7109 9.79688C10.6781 9.675 10.6359 9.5625 10.575 9.45938C10.3968 9.14531 10.1015 8.91094 9.74528 8.8125C9.14528 8.64844 8.96716 8.61563 8.74685 8.4375C8.66247 8.36719 8.56872 8.27344 8.39528 8.14219C8.37185 8.07656 8.25466 7.99688 8.20778 7.9125C8.0906 7.79063 7.95466 7.70625 7.80935 7.59844C7.77185 7.62188 7.73903 7.60781 7.70153 7.59375C7.55622 7.5375 7.39685 7.5 7.23747 7.5C7.23665 7.5 7.2383 7.5 7.23747 7.5C7.23738 7.5 7.23757 7.5 7.23747 7.5C7.23738 7.5 7.23757 7.5 7.23747 7.5C7.12028 7.5 7.0031 7.51406 6.88591 7.54688C6.89735 7.54376 6.90845 7.54504 6.91989 7.54248C6.90935 7.50469 6.89528 7.54219 6.88591 7.54688C6.40778 7.67812 6.20153 7.73906 5.95778 7.73906C5.75346 7.73906 5.55011 7.67461 5.0756 7.5457C5.00153 7.51406 4.87966 7.5 4.76247 7.5C4.76165 7.5 4.7633 7.5 4.76247 7.5C4.60216 7.5 4.44653 7.5375 4.29747 7.59375C4.26044 7.60781 4.22622 7.62188 4.1906 7.59844C4.04575 7.70625 3.90794 7.79063 3.79169 7.9125C3.08857 8.62031 3.20575 8.55 2.25653 8.8125C1.78216 8.94375 1.41091 9.31875 1.2881 9.79688C1.19153 10.1625 1.14278 10.3734 1.08044 10.5281C0.976847 10.7953 0.839034 10.9125 0.403378 11.3578C0.315487 11.4422 0.243159 11.5406 0.183065 11.6484C0.00290122 11.9625 -0.0486847 12.3422 0.0479715 12.7078C0.305784 13.6744 0.299925 13.5398 0.0479715 14.5069C-0.0486847 14.8673 0.00289653 15.2475 0.183065 15.5634C0.243112 15.6687 0.315487 15.7669 0.403378 15.8548C0.921815 16.3863 1.01697 16.4534 1.14025 16.8616C1.18127 16.9977 1.22369 17.1716 1.28814 17.4134C1.41119 17.8999 1.78221 18.2749 2.25705 18.4034C2.59399 18.4942 2.72861 18.5294 2.80455 18.5535C2.88049 18.5776 2.89844 18.5909 3.00086 18.6377V24L6.00039 22.5L8.99992 24V18.6375C9.19914 18.5438 9.07028 18.5848 9.74383 18.4031C10.0997 18.3065 10.3959 18.0713 10.574 17.7544C10.6333 17.6489 10.6798 17.5343 10.7105 17.4127C10.775 17.1695 10.8185 16.9949 10.8591 16.8586C10.9807 16.4496 11.0723 16.3857 11.595 15.8541C11.9466 15.5025 12.0816 14.9869 11.9524 14.5065C11.7005 13.5399 11.6946 13.6744 11.9524 12.7074C12.0797 12.225 11.9484 11.7094 11.5968 11.3578ZM5.99997 16.5C5.79269 16.5 5.59024 16.4791 5.39481 16.4392C5.00407 16.3594 4.64107 16.2036 4.32185 15.988C4.00277 15.7723 3.72747 15.4973 3.51185 15.178C3.18935 14.7 3.00091 14.1234 3.00091 13.5C3.00091 12.8766 3.18939 12.3009 3.51278 11.8219C3.72822 11.5027 4.00357 11.2275 4.32278 11.0119C4.64196 10.7963 5.00482 10.6405 5.39575 10.5607C5.59216 10.5188 5.79372 10.5 5.99997 10.5C7.65794 10.5 8.9995 11.8416 8.9995 13.5C8.9995 15.1584 7.65935 16.5 5.99997 16.5Z" fill="#9A4292"/>
<path opacity="0.4" d="M18 6V0H8.25C7.00781 0 6 1.00734 6 2.25L6.00003 6.23156C6.08122 6.21344 6.17835 6.18412 6.31311 6.14752L6.491 6.09919C6.7341 6.03328 6.98506 5.99977 7.23631 5.99977C7.9971 5.99977 8.741 6.3127 9.27772 6.85852L9.40625 6.98944C9.50797 7.09345 9.57913 7.1707 9.64189 7.22859C9.72116 7.2546 9.82044 7.27856 9.9561 7.31555L10.1366 7.365C11.1256 7.63598 11.8967 8.41594 12.1588 9.40734L12.2114 9.60666C12.2485 9.74766 12.272 9.84947 12.2983 9.93056C12.3565 9.99666 12.4352 10.0714 12.5425 10.1801L12.6556 10.2947C13.385 11.034 13.669 12.0985 13.4 13.1016L13.36 13.2504C13.3182 13.4064 13.2852 13.515 13.267 13.6048C13.2844 13.6875 13.3125 13.7859 13.35 13.9266L13.4008 14.1199C13.6685 15.1179 13.3829 16.1895 12.6639 16.908L12.5292 17.0446C12.4282 17.1468 12.3532 17.2182 12.2972 17.2812C12.2709 17.3631 12.2472 17.466 12.21 17.6083L12.1639 17.783C11.9413 18.6628 11.3192 19.3795 10.4989 19.7269L10.4578 24H21.75C22.9927 24 24 22.9927 24 21.75V6H18Z" fill="#9A4292"/>
</g>
<defs>
<clipPath id="clip0_3512_2339">
<rect width="24" height="24" fill="white"/>
</clipPath>
</defs>
</svg>
