<svg width="24" height="24" viewBox="0 0 24 24" fill="none" xmlns="http://www.w3.org/2000/svg">
<path d="M3.75 10.5C4.16625 10.5 4.5 10.1672 4.5 9.75V9C4.5 4.86328 7.86328 1.5 12 1.5C16.1367 1.5 19.5 4.86328 19.5 9V9.75C19.5 11.8172 17.8172 13.5 15.75 13.5H14.25C14.25 12.6741 13.5759 12 12.75 12H11.25C10.4241 12 9.75 12.6741 9.75 13.5C9.75 14.3259 10.4241 15 11.25 15H15.75C18.6506 14.9941 20.9953 12.6502 21 9.75V9C21 4.03594 16.9627 0 12 0C7.03734 0 3 4.03734 3 9V9.75C3 10.1672 3.33422 10.5 3.75 10.5ZM16.2516 16.5H7.74844C4.29844 16.5 1.5 19.2984 1.5 22.7484C1.5 23.4422 2.05969 24 2.74969 24H21.2484C21.9422 24 22.5 23.4422 22.5 22.7484C22.5 19.2984 19.7016 16.5 16.2516 16.5Z" fill="#2D9DA6"/>
<path opacity="0.4" d="M11.25 10.5H12.75C13.8225 10.5 14.8116 11.0719 15.345 11.9977L15.75 12C16.9922 12 18 10.9922 18 9.79219V9C18 5.68359 15.3164 3 12 3C8.68359 3 6 5.68359 6 9C6 10.8928 6.89625 12.562 8.26734 13.6636C8.25937 13.6031 8.25 13.5609 8.25 13.5C8.25 11.8406 9.59062 10.5 11.25 10.5Z" fill="#2D9DA6"/>
</svg>
