<svg width="56" height="56" viewBox="0 0 56 56" fill="none" xmlns="http://www.w3.org/2000/svg">
<path d="M13.8565 18.25H16.9994C17.8637 18.25 18.5708 17.5188 18.5708 16.625V13.375C18.5708 12.4914 17.8637 11.75 16.9994 11.75H13.8565C12.9972 11.75 12.2851 12.4914 12.2851 13.375V16.625C12.2851 17.5188 12.9972 18.25 13.8565 18.25ZM16.9994 37.75H13.8565C12.9972 37.75 12.2851 38.4914 12.2851 39.375V42.625C12.2851 43.5187 12.9972 44.25 13.8565 44.25H16.9994C17.8637 44.25 18.5708 43.5187 18.5708 42.625V39.375C18.5708 38.4914 17.8637 37.75 16.9994 37.75ZM22.0378 22.7898C21.4239 22.1551 20.429 22.1551 19.8162 22.7898L15.428 27.3297L14.1816 26.0398C13.5678 25.4051 12.5729 25.4051 11.96 26.0398C11.3472 26.6746 11.3462 27.7034 11.96 28.3372L14.3172 30.7747C14.6236 31.0875 15.0263 31.25 15.428 31.25C15.8297 31.25 16.2321 31.0914 16.5388 30.7739L22.0388 25.0864C22.6565 24.4555 22.6565 23.4195 22.0378 22.7898Z" fill="#2D70AE"/>
<path opacity="0.4" d="M43.7143 2H12.2857C8.81384 2 6 4.90977 6 8.5V47.5C6 51.0902 8.81384 54 12.2857 54H43.7143C47.1862 54 50 51.0902 50 47.5V8.5C50 4.90977 47.1812 2 43.7143 2ZM12.2857 13.375C12.2857 12.4914 12.9978 11.75 13.8571 11.75H17C17.8643 11.75 18.5714 12.4914 18.5714 13.375V16.625C18.5714 17.5188 17.8643 18.25 17 18.25H13.8571C12.9978 18.25 12.2857 17.5188 12.2857 16.625V13.375ZM18.5714 42.625C18.5714 43.5187 17.8643 44.25 17 44.25H13.8571C12.9978 44.25 12.2857 43.5187 12.2857 42.625V39.375C12.2857 38.4914 12.9978 37.75 13.8571 37.75H17C17.8643 37.75 18.5714 38.4914 18.5714 39.375V42.625ZM22.0384 25.0852L16.5384 30.7727C16.2339 31.0875 15.8313 31.25 15.4286 31.25C15.0259 31.25 14.6242 31.0875 14.3178 30.7727L11.9606 28.3352C11.3468 27.7004 11.3468 26.6716 11.9606 26.0378C12.5745 25.4041 13.5694 25.403 14.1822 26.0378L15.4286 27.3297L19.8178 22.7909C20.4316 22.1561 21.4265 22.1561 22.0394 22.7909C22.6522 23.4256 22.6571 24.4555 22.0384 25.0852ZM42.1429 42.625H26.4286C25.5643 42.625 24.8571 41.8937 24.8571 41C24.8571 40.1063 25.5607 39.375 26.4286 39.375H42.1429C43.0107 39.375 43.7143 40.1026 43.7143 41C43.7143 41.8974 43.0071 42.625 42.1429 42.625ZM42.1429 29.625H26.4286C25.5643 29.625 24.8571 28.8937 24.8571 28C24.8571 27.1063 25.5607 26.375 26.4286 26.375H42.1429C43.0071 26.375 43.7143 27.1063 43.7143 28C43.7143 28.8937 43.0071 29.625 42.1429 29.625ZM42.1429 16.625H26.4286C25.5643 16.625 24.8571 15.8938 24.8571 15C24.8571 14.1062 25.5607 13.375 26.4286 13.375H42.1429C43.0071 13.375 43.7143 14.1062 43.7143 15C43.7143 15.8938 43.0071 16.625 42.1429 16.625Z" fill="#2D70AE"/>
</svg>
