<svg width="24" height="24" viewBox="0 0 24 24" fill="none" xmlns="http://www.w3.org/2000/svg">
<path d="M4.50703 19.6453C4.58147 20.4253 5.28094 20.9977 6.06469 20.9977L21 21C21.8283 21 22.5 21.6717 22.5 22.4578C22.5 23.3297 21.8297 24 21 24H6C3.51469 24 1.5 21.9853 1.5 19.5V4.5C1.5 2.01469 3.51469 0 6 0H10.5V8.95781C10.5 9.58641 11.2275 9.93656 11.6766 9.54328L14.25 7.5L16.7812 9.58406C17.2734 9.975 18 9.62813 18 8.95781V0H20.25C21.4922 0 22.5 1.00734 22.5 2.25V15.75C22.5 16.9927 21.4927 18 20.25 18H6C5.12297 18 4.42172 18.7547 4.50703 19.6453Z" fill="#2D9DA6"/>
<path opacity="0.4" d="M20.25 17.9972H6C5.17172 17.9972 4.5 18.6689 4.5 19.4972C4.5 20.3255 5.17172 20.9972 6 20.9972H21V17.8594C20.7234 17.9409 20.5125 17.9972 20.25 17.9972Z" fill="#2D9DA6"/>
</svg>
