<?xml version="1.0" encoding="UTF-8"?>
<svg xmlns="http://www.w3.org/2000/svg" xmlns:xlink="http://www.w3.org/1999/xlink" width="32px" height="32px" viewBox="0 0 32 32" version="1.1">
<defs>
<filter id="alpha" filterUnits="objectBoundingBox" x="0%" y="0%" width="100%" height="100%">
  <feColorMatrix type="matrix" in="SourceGraphic" values="0 0 0 0 1 0 0 0 0 1 0 0 0 0 1 0 0 0 1 0"/>
</filter>
<mask id="mask0">
  <g filter="url(#alpha)">
<rect x="0" y="0" width="32" height="32" style="fill:rgb(0%,0%,0%);fill-opacity:0.4;stroke:none;"/>
  </g>
</mask>
<clipPath id="clip1">
  <rect x="0" y="0" width="32" height="32"/>
</clipPath>
<g id="surface5" clip-path="url(#clip1)">
<path style=" stroke:none;fill-rule:nonzero;fill:rgb(83.529412%,32.941176%,42.745098%);fill-opacity:1;" d="M 29.128906 7.390625 C 28.097656 7.390625 27.257812 8.230469 27.257812 9.265625 L 27.257812 16.425781 L 24.34375 20.390625 C 23.855469 21 22.945312 21.054688 22.390625 20.503906 C 21.921875 20.03125 21.878906 19.28125 22.296875 18.761719 L 23.183594 17.328125 C 23.703125 16.679688 23.601562 15.734375 22.953125 15.214844 C 22.304688 14.695312 21.359375 14.808594 20.847656 15.449219 L 18.503906 18.375 C 17.863281 19.214844 17.519531 20.199219 17.519531 21.222656 L 17.519531 26.921875 C 17.519531 27.753906 18.191406 28.425781 19.023438 28.425781 L 23.527344 28.425781 C 23.984375 28.425781 24.414062 28.214844 24.695312 27.863281 L 30.328125 20.777344 C 30.800781 20.246094 31.023438 19.585938 31.023438 18.894531 L 31.023438 9.265625 C 31 8.273438 30.160156 7.390625 29.128906 7.390625 Z M 11.128906 15.457031 C 10.617188 14.847656 9.703125 14.703125 9.0625 15.222656 C 8.414062 15.742188 8.3125 16.6875 8.832031 17.335938 L 9.71875 18.769531 C 10.136719 19.289062 10.097656 20.039062 9.625 20.511719 C 9.070312 21.0625 8.160156 21.015625 7.671875 20.398438 L 4.761719 16.472656 L 4.761719 9.265625 C 4.761719 8.230469 3.921875 7.390625 2.886719 7.390625 C 1.855469 7.390625 1.015625 8.273438 1.015625 9.265625 L 1.015625 18.855469 C 1.015625 19.535156 1.246094 20.199219 1.671875 20.726562 L 7.304688 27.816406 C 7.59375 28.167969 8.015625 28.375 8.472656 28.375 L 13.015625 28.375 C 13.847656 28.375 14.519531 27.703125 14.519531 26.871094 L 14.519531 21.222656 C 14.519531 20.199219 14.175781 19.207031 13.535156 18.414062 Z M 11.128906 15.457031 "/>
</g>
</defs>
<g id="surface1">
<path style=" stroke:none;fill-rule:nonzero;fill:rgb(83.529412%,32.941176%,42.745098%);fill-opacity:1;" d="M 21.441406 5.257812 C 20 4 17.839844 4.230469 16.519531 5.617188 L 15.960938 6.160156 L 15.480469 5.617188 C 14.160156 4.230469 12 4 10.519531 5.257812 C 8.902344 6.6875 8.816406 9.265625 10.296875 10.824219 L 15.398438 16.175781 C 15.726562 16.519531 16.265625 16.519531 16.59375 16.175781 L 21.65625 10.824219 C 23.183594 9.265625 23.097656 6.695312 21.441406 5.257812 Z M 21.441406 5.257812 "/>
<use xlink:href="#surface5" mask="url(#mask0)"/>
</g>
</svg>
