<svg width="24" height="24" viewBox="0 0 24 24" fill="none" xmlns="http://www.w3.org/2000/svg">
<g clip-path="url(#clip0_4160_3060)">
<path d="M16.4578 6H18V7.50187C18 7.9125 18.3375 8.25 18.75 8.25C19.1625 8.25 19.5 7.9125 19.5 7.5V6H21.0019C21.4125 6 21.75 5.6625 21.75 5.20781C21.75 4.75312 21.4125 4.5 21 4.5H19.5V2.99812C19.5 2.58656 19.1625 2.25 18.7078 2.25C18.2531 2.25 18 2.58656 18 2.99812V4.5H16.4981C16.0875 4.5 15.75 4.8375 15.75 5.25C15.75 5.6625 16.0875 6 16.4578 6ZM7.37344 16.6312C7.08183 16.3395 6.60469 16.3395 6.31312 16.6312L5.25 17.6906L4.18969 16.6303C3.89808 16.3386 3.42094 16.3386 3.12938 16.6303C2.83777 16.9219 2.83777 17.3991 3.12938 17.6906L4.18922 18.75L3.12891 19.8103C2.8373 20.1019 2.8373 20.5791 3.12891 20.8706C3.42061 21.1622 3.89766 21.1622 4.18922 20.8706L5.25 19.8094L6.31031 20.8697C6.60202 21.1613 7.07906 21.1613 7.37063 20.8697C7.66233 20.578 7.66233 20.1009 7.37063 19.8094L6.30938 18.75L7.36969 17.6897C7.66406 17.4 7.66406 16.8797 7.37344 16.6312ZM7.5 4.5H2.99812C2.58656 4.5 2.25 4.8375 2.25 5.25C2.25 5.6625 2.58656 6 2.99812 6H7.50234C7.9125 6 8.25 5.6625 8.25 5.20781C8.25 4.75312 7.9125 4.5 7.5 4.5ZM22.5 13.5H15C14.1741 13.5 13.5 14.1741 13.5 15V22.5C13.5 23.3259 14.1741 24 15 24H22.5C23.3259 24 24 23.3259 24 22.5V15C24 14.175 23.325 13.5 22.5 13.5ZM21.75 20.2078C21.75 20.6578 21.4125 21 21 21H16.4958C16.0875 21 15.75 20.6625 15.75 20.25C15.75 19.8375 16.0875 19.5 16.4578 19.5H20.9606C21.4125 19.5 21.75 19.8375 21.75 20.2078ZM21.75 17.2078C21.75 17.6578 21.4125 18 21 18H16.4972C16.0875 18 15.75 17.6625 15.75 17.25C15.75 16.8375 16.0875 16.5 16.4578 16.5H20.962C21.4125 16.5 21.75 16.8375 21.75 17.2078Z" fill="#2D70AE"/>
<path opacity="0.4" d="M9 13.5H1.5C0.674062 13.5 0 14.1741 0 15V22.5C0 23.3259 0.674062 24 1.5 24H9C9.82594 24 10.5 23.3259 10.5 22.5V15C10.5 14.175 9.825 13.5 9 13.5ZM7.37344 19.8094C7.66514 20.101 7.66514 20.5781 7.37344 20.8697C7.08183 21.1613 6.60469 21.1613 6.31312 20.8697L5.25 19.8094L4.18969 20.8697C3.89808 21.1613 3.42094 21.1613 3.12937 20.8697C2.83777 20.578 2.83777 20.1009 3.12937 19.8094L4.18922 18.75L3.12891 17.6897C2.8373 17.398 2.8373 16.9209 3.12891 16.6294C3.42061 16.3377 3.89766 16.3377 4.18922 16.6294L5.25 17.6906L6.31031 16.6303C6.60202 16.3386 7.07906 16.3386 7.37063 16.6303C7.66233 16.9219 7.66233 17.3991 7.37063 17.6906L6.30938 18.75L7.37344 19.8094ZM9 0H1.5C0.674062 0 0 0.674062 0 1.5V9C0 9.82594 0.674062 10.5 1.5 10.5H9C9.82594 10.5 10.5 9.82594 10.5 9V1.5C10.5 0.674062 9.825 0 9 0ZM8.25 5.20781C8.25 5.6625 7.9125 6 7.5 6H2.99813C2.58656 6 2.25 5.6625 2.25 5.25C2.25 4.8375 2.58656 4.5 2.99813 4.5H7.50234C7.9125 4.5 8.25 4.8375 8.25 5.20781ZM22.5 0H15C14.1741 0 13.5 0.674062 13.5 1.5V9C13.5 9.82594 14.1741 10.5 15 10.5H22.5C23.3259 10.5 24 9.82594 24 9V1.5C24 0.674062 23.325 0 22.5 0ZM21.75 5.20781C21.75 5.6625 21.4125 6 21 6H19.5V7.50187C19.5 7.9125 19.1625 8.25 18.75 8.25C18.3375 8.25 18 7.9125 18 7.5V6H16.4981C16.0875 6 15.75 5.6625 15.75 5.25C15.75 4.8375 16.0875 4.5 16.4578 4.5H18V2.99813C18 2.58656 18.3375 2.25 18.7078 2.25C19.0781 2.25 19.5 2.58656 19.5 2.99813V4.5H21.0019C21.4125 4.5 21.75 4.8375 21.75 5.20781Z" fill="#2D70AE"/>
</g>
<defs>
<clipPath id="clip0_4160_3060">
<rect width="24" height="24" fill="white"/>
</clipPath>
</defs>
</svg>
