<svg width="24" height="24" viewBox="0 0 24 24" fill="none" xmlns="http://www.w3.org/2000/svg">
<g clip-path="url(#clip0_4160_3072)">
<path d="M7.5 15H8.0625V15.75C8.0625 16.166 8.39648 16.5 8.8125 16.5H10.6875C11.1035 16.5 11.4375 16.166 11.4375 15.75V15H12C12.8259 15 13.5 14.3259 13.5 13.5V3C13.5 2.17406 12.8259 1.5 12 1.5H7.5C6.675 1.5 6 2.17406 6 3V13.5C6 14.325 6.675 15 7.5 15ZM21.75 21H21.6914C23.1234 19.4062 24 17.3109 24 15C24 10.0359 19.9627 6 15 6V9C18.3108 9 21 11.6897 21 15C21 18.3103 18.3103 21 15 21H2.25C1.00781 21 0 22.0078 0 23.25C0 23.6672 0.333984 24 0.75 24H23.25C23.666 24 24 23.666 24 23.25C24 22.0078 22.9922 21 21.75 21Z" fill="#2D9DA6"/>
<path opacity="0.4" d="M14.625 18H4.875C4.67016 18 4.5 18.1688 4.5 18.375V19.125C4.5 19.3312 4.67016 19.5 4.875 19.5H14.625C14.8301 19.5 15 19.3301 15 19.125V18.375C15 18.1688 14.8313 18 14.625 18ZM12 0.75C12 0.335812 11.6625 0 11.25 0H8.25C7.8375 0 7.5 0.335812 7.5 0.75V1.5H12V0.75Z" fill="#2D9DA6"/>
</g>
<defs>
<clipPath id="clip0_4160_3072">
<rect width="24" height="24" fill="white"/>
</clipPath>
</defs>
</svg>
