<svg width="24" height="24" viewBox="0 0 24 24" fill="none" xmlns="http://www.w3.org/2000/svg">
<path d="M6 18H20.25C21.4927 18 22.5 16.9927 22.5 15.75V2.25C22.5 1.00734 21.4922 0 20.25 0H6C3.51469 0 1.5 2.01469 1.5 4.5V19.5C1.5 21.9853 3.51469 24 6 24H21C21.8283 24 22.5 23.3283 22.5 22.5422C22.5 21.6703 21.8297 21 21 21H6.06563C5.28234 21 4.5825 20.4272 4.50844 19.6472C4.42172 18.7547 5.12297 18 6 18ZM8.20781 6H17.2078C17.6625 6 18 6.3375 18 6.75C18 7.1625 17.6625 7.5 17.25 7.5H8.20781C7.8375 7.5 7.5 7.1625 7.5 6.75C7.5 6.3375 7.8375 6 8.20781 6ZM8.20781 9H17.2078C17.6625 9 18 9.3375 18 9.75C18 10.1625 17.6625 10.5 17.25 10.5H8.20781C7.8375 10.5 7.5 10.1625 7.5 9.75C7.5 9.3375 7.8375 9 8.20781 9Z" fill="#EFA929"/>
<path opacity="0.4" d="M20.25 17.9972H6C5.17172 17.9972 4.5 18.6689 4.5 19.4972C4.5 20.3255 5.17172 20.9972 6 20.9972H21V17.8594C20.7234 17.9409 20.5125 17.9972 20.25 17.9972Z" fill="#EFA929"/>
</svg>
