<svg width="24" height="24" viewBox="0 0 24 24" fill="none" xmlns="http://www.w3.org/2000/svg">
<g clip-path="url(#clip0_4160_3077)">
<path d="M8.4 11.9984C11.0512 11.9984 13.2 9.84931 13.2 7.19844C13.2 4.54756 11.0512 2.39844 8.4 2.39844C5.74875 2.39844 3.6 4.54756 3.6 7.19844C3.6 9.84931 5.74875 11.9984 8.4 11.9984ZM10.3012 13.7984H6.49875C2.90887 13.7984 0 16.7084 0 20.2972C0 21.0172 0.582 21.5984 1.29975 21.5984H15.4987C16.2187 21.5984 16.8 21.0172 16.8 20.2972C16.8 16.7084 13.89 13.7984 10.3012 13.7984Z" fill="#D5546D"/>
<path opacity="0.4" d="M17.9696 14.4016H15.2002C16.9234 15.8153 18.0034 17.9303 18.0034 20.3003C18.0034 20.7803 17.8609 21.2228 17.6284 21.6016H22.8034C23.4671 21.6016 24.0034 21.0616 24.0034 20.3678C24.0034 17.0866 21.3184 14.4016 17.9696 14.4016ZM16.2034 12.0016C18.5246 12.0016 20.4034 10.1228 20.4034 7.80156C20.4034 5.48031 18.5246 3.60156 16.2034 3.60156C15.2617 3.60156 14.4019 3.92237 13.7014 4.44569C14.1334 5.27519 14.4034 6.20406 14.4034 7.20156C14.4034 8.53356 13.956 9.75681 13.2188 10.7532C13.9796 11.5216 15.0334 12.0016 16.2034 12.0016Z" fill="#D5546D"/>
</g>
<defs>
<clipPath id="clip0_4160_3077">
<rect width="24" height="24" fill="white"/>
</clipPath>
</defs>
</svg>
