<svg width="24" height="24" viewBox="0 0 24 24" fill="none" xmlns="http://www.w3.org/2000/svg">
<g clip-path="url(#clip0_4401_3070)">
<path d="M14.8494 22.7795C13.944 23.0189 12.9865 23.1451 11.9636 23.1451C11.019 23.1451 10.0615 23.0189 9.1561 22.7795C8.04617 21.2908 7.18434 18.9622 6.74907 16.1808H1.66993C1.48755 15.7325 1.3339 15.2276 1.21094 14.7879H6.57061C6.4792 13.8913 6.39215 12.9206 6.39215 12.0022C6.39215 11.0446 6.4792 10.1132 6.57061 9.21652H1.21094C1.3339 8.73772 1.48755 8.27199 1.66993 7.82366H6.74907C7.18434 5.04404 8.04617 2.71449 9.1561 1.22683C10.0615 0.987083 11.019 0.859375 11.9636 0.859375C11.685 0.859375 11.2802 0.997703 10.7927 1.46048C10.3009 1.93057 9.79159 2.67618 9.33456 3.70385C8.834 4.83685 8.42485 6.23929 8.15934 7.82366H15.8462C15.5807 6.23929 15.1715 4.83685 14.6709 3.70385C14.2139 2.67618 13.7046 1.93057 13.2128 1.46048C12.7253 0.997703 12.3205 0.859375 11.9636 0.859375C12.9865 0.859375 13.944 0.987083 14.8494 1.22683C15.9593 2.71449 16.8212 5.04404 17.2564 7.82366H22.336C22.5188 8.27199 22.6712 8.73772 22.793 9.21652H17.4349C17.5263 10.1132 17.5742 11.0446 17.5742 12.0022C17.5742 12.9206 17.5263 13.8913 17.4349 14.7879H22.793C22.6712 15.2276 22.5188 15.7325 22.336 16.1808H17.2564C16.8212 18.9622 15.9593 21.2908 14.8494 22.7795ZM8.15934 16.1808C8.42485 17.7652 8.834 19.1667 9.33456 20.2984C9.79159 21.33 10.3009 22.0743 10.7927 22.5444C11.2802 23.0058 11.685 23.1451 11.9636 23.1451C12.3205 23.1451 12.7253 23.0058 13.2128 22.5444C13.7046 22.0743 14.2139 21.33 14.6709 20.2984C15.1715 19.1667 15.5807 17.7652 15.8462 16.1808H8.15934ZM16.1813 12.0022C16.1813 11.0359 16.1291 10.1045 16.0377 9.21652H7.96782C7.87641 10.1045 7.78501 11.0359 7.78501 12.0022C7.78501 12.9685 7.87641 13.9 7.96782 14.7879H16.0377C16.1291 13.9 16.1813 12.9685 16.1813 12.0022Z" fill="#D5546D"/>
<path opacity="0.4" d="M16.1808 12.0022C16.1808 12.9685 16.1286 13.9 16.0372 14.7879H7.9673C7.87589 13.9 7.78449 12.9685 7.78449 12.0022C7.78449 11.0359 7.87589 10.1045 7.9673 9.21652H16.0372C16.1286 10.1045 16.1808 11.0359 16.1808 12.0022ZM22.7925 9.21652C23.0232 10.1088 23.1451 11.0403 23.1451 12.0022C23.1451 12.9642 23.0232 13.8956 22.7925 14.7879H17.4344C17.5258 13.8913 17.5737 12.9206 17.5737 12.0022C17.5737 11.0446 17.5258 10.1132 17.4344 9.21652H22.7925ZM22.3355 7.82366H17.2559C16.8206 5.04404 15.9588 2.71449 14.8489 1.22683C18.2614 2.12557 21.0297 4.60007 22.3355 7.82366ZM15.8456 7.82366H8.15882C8.42433 6.23929 8.83348 4.83685 9.33404 3.70385C9.79107 2.67618 10.3003 1.93057 10.7922 1.46048C11.2797 0.997703 11.6845 0.859375 12.0022 0.859375C12.32 0.859375 12.7248 0.997703 13.2123 1.46048C13.7041 1.93057 14.2134 2.67618 14.6704 3.70385C15.171 4.83685 15.5801 6.23929 15.8456 7.82366ZM1.66941 7.82366C2.97434 4.60007 5.74308 2.12557 9.15558 1.22683C8.04565 2.71449 7.18382 5.04404 6.74855 7.82366H1.66941ZM6.57009 9.21652C6.47868 10.1132 6.39163 11.0446 6.39163 12.0022C6.39163 12.9206 6.47868 13.8913 6.57009 14.7879H1.21042C0.98125 13.8956 0.859375 12.9642 0.859375 12.0022C0.859375 11.0403 0.98125 10.1088 1.21042 9.21652H6.57009ZM9.33404 20.2984C8.83348 19.1667 8.42433 17.7652 8.15882 16.1808H15.8456C15.5801 17.7652 15.171 19.1667 14.6704 20.2984C14.2134 21.33 13.7041 22.0743 13.2123 22.5444C12.7248 23.0058 12.32 23.1451 11.9631 23.1451C11.6845 23.1451 11.2797 23.0058 10.7922 22.5444C10.3003 22.0743 9.79107 21.33 9.33404 20.2984ZM9.15558 22.7795C5.74308 21.8785 2.97434 19.4061 1.66941 16.1808H6.74855C7.18382 18.9622 8.04565 21.2908 9.15558 22.7795ZM14.8489 22.7795C15.9588 21.2908 16.8206 18.9622 17.2559 16.1808H22.3355C21.0297 19.4061 18.2614 21.8785 14.8489 22.7795Z" fill="#D5546D"/>
</g>
<defs>
<clipPath id="clip0_4401_3070">
<rect width="24" height="24" fill="white"/>
</clipPath>
</defs>
</svg>
