<svg width="24" height="24" viewBox="0 0 24 24" fill="none" xmlns="http://www.w3.org/2000/svg">
<path opacity="0.4" d="M22.3032 10.1295H20.6318V8.52232C20.6318 8.08036 20.2592 7.71875 19.796 7.71875C19.3329 7.71875 18.9603 8.07868 18.9603 8.52232V10.1295H17.2889C16.8292 10.1295 16.4531 10.4911 16.4531 10.933C16.4531 11.375 16.8275 11.7366 17.2889 11.7366H18.9603V13.3438C18.9603 13.7891 19.3364 14.1473 19.796 14.1473C20.2557 14.1473 20.6318 13.7874 20.6318 13.3438V11.7366H22.3032C22.7664 11.7366 23.139 11.3783 23.139 10.933C23.139 10.4877 22.7664 10.1295 22.3032 10.1295Z" fill="#2D9DA6"/>
<path d="M8.65952 12.0011C11.1214 12.0011 13.1167 10.0823 13.1167 7.7154C13.1167 5.34855 11.1214 3.42969 8.65952 3.42969C6.1976 3.42969 4.2023 5.34855 4.2023 7.7154C4.2023 10.0823 6.1976 12.0011 8.65952 12.0011ZM10.425 13.6083H6.89404C3.56192 13.6083 0.859375 16.2065 0.859375 19.4107C0.859375 20.0536 1.39981 20.5725 2.06631 20.5725H15.2534C15.9199 20.5725 16.4597 20.0536 16.4597 19.4107C16.4597 16.2065 13.7575 13.6083 10.425 13.6083Z" fill="#2D9DA6"/>
</svg>
