<svg width="24" height="24" viewBox="0 0 24 24" fill="none" xmlns="http://www.w3.org/2000/svg">
<path d="M14.7132 3.64509C14.7132 2.10642 13.4981 0.859375 11.9989 0.859375C10.4997 0.859375 9.2846 2.10642 9.2846 3.64509C7.78538 3.64509 6.57031 4.89213 6.57031 6.4308V7.12723C6.57031 7.51027 6.87397 7.82366 7.24888 7.82366H16.7489C17.1221 7.82366 17.4275 7.51027 17.4275 7.12723V6.4308C17.4275 4.89213 16.2103 3.64509 14.7132 3.64509ZM11.9989 4.68973C11.4348 4.68973 10.981 4.22182 10.981 3.64509C10.981 3.06792 11.4369 2.60045 11.9989 2.60045C12.5608 2.60045 13.0167 3.06792 13.0167 3.64509C13.0167 4.22182 12.5629 4.68973 11.9989 4.68973ZM7.92746 17.2254C7.36551 17.2254 6.9096 17.6934 6.9096 18.2701C6.9096 18.8468 7.36551 19.3147 7.92746 19.3147C8.4894 19.3147 8.94531 18.8468 8.94531 18.2701C8.94531 17.6934 8.49152 17.2254 7.92746 17.2254ZM10.8411 10.814L8.60603 13.1078L7.72855 12.2068C7.46348 11.9348 7.03386 11.9348 6.76922 12.2068C6.50458 12.4789 6.50415 12.9198 6.76922 13.1914L8.12636 14.5842C8.25826 14.7183 8.43214 14.7879 8.60603 14.7879C8.77991 14.7879 8.95329 14.72 9.08569 14.5839L11.8 11.7982C12.065 11.5261 12.065 11.0852 11.8 10.8136C11.5349 10.542 11.104 10.5397 10.8411 10.814Z" fill="#2D70AE"/>
<path opacity="0.4" d="M18.1094 3.64062H14.7165C16.2157 3.64062 17.4308 4.88767 17.4308 6.42634V7.12277C17.4308 7.5058 17.1254 7.8192 16.7522 7.8192H7.25223C6.87732 7.8192 6.57366 7.5058 6.57366 7.12277V6.42634C6.57366 4.88767 7.78873 3.64062 9.28795 3.64062H5.89509C4.77078 3.64062 3.85938 4.57602 3.85938 5.72991V21.0513C3.85938 22.2048 4.77078 23.1406 5.89509 23.1406H18.1094C19.2337 23.1406 20.1451 22.2052 20.1451 21.0513V5.72991C20.1451 4.57602 19.2333 3.64062 18.1094 3.64062ZM7.9308 19.3103C7.36886 19.3103 6.91295 18.8424 6.91295 18.2656C6.91295 17.6889 7.36886 17.221 7.9308 17.221C8.49275 17.221 8.94866 17.6889 8.94866 18.2656C8.94866 18.8424 8.49487 19.3103 7.9308 19.3103ZM8.60938 14.7835C8.43575 14.7835 8.26212 14.7155 8.12971 14.5794L6.77257 13.1866C6.5075 12.9145 6.5075 12.4736 6.77257 12.202C7.03763 11.9304 7.46725 11.93 7.7319 12.202L8.60938 13.1033L10.844 10.8099C11.1091 10.5379 11.5387 10.5379 11.8033 10.8099C12.068 11.082 12.0684 11.5229 11.8033 11.7945L9.08904 14.5802C8.95714 14.7138 8.78326 14.7835 8.60938 14.7835ZM16.7522 18.9621H11.3237C10.9504 18.9621 10.6451 18.6487 10.6451 18.2656C10.6451 17.8826 10.9504 17.5692 11.3237 17.5692H16.7522C17.1255 17.5692 17.4308 17.8825 17.4308 18.2656C17.4308 18.6487 17.1254 18.9621 16.7522 18.9621ZM16.7522 14.7835H12.6808C12.3076 14.7835 12.0022 14.4701 12.0022 14.0871C12.0022 13.704 12.3076 13.3906 12.6808 13.3906H16.7522C17.1254 13.3906 17.4308 13.704 17.4308 14.0871C17.4308 14.4701 17.1254 14.7835 16.7522 14.7835Z" fill="#2D70AE"/>
</svg>
