<svg width="24" height="24" viewBox="0 0 24 24" fill="none" xmlns="http://www.w3.org/2000/svg">
<path d="M24 8.40053C24 8.78978 23.7586 9.13741 23.3981 9.26641L12.7969 13.0614C12.282 13.2455 11.7206 13.2455 11.2058 13.0614L4.0575 10.5043C4.57125 9.93428 5.21625 9.50678 6.0375 9.30803L12.1463 7.78103C12.4685 7.70074 12.663 7.37491 12.5835 7.05391C12.5038 6.73163 12.1721 6.53303 11.8556 6.61741L5.74875 8.14553C4.5525 8.44553 3.5475 9.14303 2.85263 10.073L0.601875 9.26678C0.241425 9.13553 0 8.79053 0 8.40053C0 8.01053 0.241425 7.66366 0.601875 7.53466L11.2031 3.73966C11.718 3.55553 12.2794 3.55553 12.7943 3.73966L23.3955 7.53466C23.76 7.66553 24 8.01053 24 8.40053ZM13.1663 14.1905C12.8138 14.3293 12.4088 14.4005 12 14.4005C11.5905 14.4005 11.1866 14.3305 10.8 14.1922L5.355 12.2443L4.8 17.5993C4.8 19.148 7.99125 20.4005 12 20.4005C15.9413 20.4005 19.2 19.148 19.2 17.6004L18.6458 12.2417L13.1663 14.1905Z" fill="#EFA929"/>
<path opacity="0.4" d="M12.1411 7.77531L6.03235 9.30156C4.55485 9.67281 3.45985 10.8316 3.11785 12.2603C3.40098 12.4478 3.59485 12.8078 3.59485 13.1941C3.59485 13.5673 3.41433 13.8874 3.1471 14.1076L4.07823 19.6951C4.1386 20.0603 3.85735 20.3941 3.48648 20.3941H1.30323C0.932466 20.3941 0.650353 20.0611 0.711478 19.6954L1.6426 14.1079C1.37523 13.8878 1.19485 13.5353 1.19485 13.1941C1.19485 12.6976 1.49662 12.2712 1.92685 12.0889C2.3401 10.1824 3.7861 8.62843 5.7406 8.14018L11.8494 6.61318C12.1658 6.52881 12.4974 6.72744 12.5772 7.04968C12.6586 7.37031 12.4636 7.69656 12.1411 7.77531Z" fill="#EFA929"/>
</svg>
