<svg width="24" height="24" viewBox="0 0 24 24" fill="none" xmlns="http://www.w3.org/2000/svg">
<g clip-path="url(#clip0_4401_3049)">
<path d="M13.0929 18.5733L7.6929 4.61508C7.5504 4.16071 7.1004 3.85938 6.60165 3.85938C6.1029 3.85938 5.6529 4.16071 5.47665 4.61363L0.0766513 18.5719C-0.155961 19.1738 0.158701 19.8441 0.779026 20.0702C1.39965 20.2929 2.09078 19.9918 2.32403 19.3897L3.3819 16.6544H9.8169L10.8748 19.3897C11.0604 19.8565 11.5142 20.1436 12.0017 20.1436C12.1417 20.1436 12.2841 20.1198 12.4228 20.0698C13.0442 19.8456 13.3592 19.1731 13.0929 18.5733ZM4.28415 14.3277L6.60165 8.33365L8.9199 14.3277H4.28415Z" fill="#2D9DA6"/>
<path opacity="0.4" d="M22.7984 8.50781C22.3057 8.50781 21.8846 8.79654 21.6997 9.20827C20.9684 8.77316 20.1172 8.50781 19.1984 8.50781C16.5517 8.50781 14.3984 10.5946 14.3984 13.1606L14.3985 15.4844C14.3985 18.0503 16.5517 20.1408 19.1647 20.1408C20.0838 20.1408 20.9351 19.8767 21.666 19.4407C21.8834 19.8525 22.3072 20.1397 22.7984 20.1397C23.4611 20.1397 23.9984 19.6195 23.9984 18.9765V9.671C23.9984 9.02761 23.4622 8.50781 22.7984 8.50781ZM21.5984 15.4869C21.5984 16.7694 20.5222 17.8133 19.1984 17.8133C17.8747 17.8133 16.7984 16.7694 16.7984 15.4869V13.1606C16.7984 11.8781 17.8747 10.8669 19.1984 10.8669C20.5222 10.8669 21.5984 11.9109 21.5984 13.1606V15.4869Z" fill="#2D9DA6"/>
</g>
<defs>
<clipPath id="clip0_4401_3049">
<rect width="24" height="24" fill="white"/>
</clipPath>
</defs>
</svg>
