<svg width="24" height="24" viewBox="0 0 24 24" fill="none" xmlns="http://www.w3.org/2000/svg">
<path d="M12.6 8.46763H13.2C13.53 8.46763 13.8 8.73281 13.8 9.05692C13.8 9.38103 13.53 9.64621 13.2 9.64621H12C11.67 9.64621 11.4 9.38103 11.4 9.05692V7.87835C11.4 7.55424 11.67 7.28906 12 7.28906C12.33 7.28906 12.6 7.55424 12.6 7.87835V8.46763ZM3 10.2355C3 9.91138 3.2685 9.64621 3.6 9.64621H4.8C5.13 9.64621 5.4 9.91138 5.4 10.2355V12.5926C5.4 12.9167 5.13 13.1819 4.8 13.1819H3.6C3.2685 13.1819 3 12.9167 3 12.5926V10.2355ZM18.6 10.2355C18.6 9.91138 18.87 9.64621 19.2 9.64621H20.4C20.73 9.64621 21 9.91138 21 10.2355V12.5926C21 12.9167 20.73 13.1819 20.4 13.1819H19.2C18.87 13.1819 18.6 12.9167 18.6 12.5926V10.2355ZM4.8 14.3605C5.13 14.3605 5.4 14.6257 5.4 14.9498V17.3069C5.4 17.631 5.13 17.8962 4.8 17.8962H3.6C3.2685 17.8962 3 17.631 3 17.3069V14.9498C3 14.6257 3.2685 14.3605 3.6 14.3605H4.8ZM18.6 14.9498C18.6 14.6257 18.87 14.3605 19.2 14.3605H20.4C20.73 14.3605 21 14.6257 21 14.9498V17.3069C21 17.631 20.73 17.8962 20.4 17.8962H19.2C18.87 17.8962 18.6 17.631 18.6 17.3069V14.9498Z" fill="#9A4292"/>
<path opacity="0.4" d="M17.88 6.18189L22.59 7.17778C23.415 7.3914 24 8.10591 24 8.93459V19.6596C24 20.6356 23.1938 21.4274 22.2 21.4274H1.8C0.805875 21.4274 0 20.6356 0 19.6596V8.93459C0 8.10591 0.586125 7.3914 1.40963 7.17778L6.12 6.18189L11.3325 2.76823C11.7038 2.50434 12.2625 2.50434 12.6675 2.76823L17.88 6.18189ZM9.6 21.4274H14.4V17.8917C14.4 16.5916 13.3238 15.5346 12 15.5346C10.6763 15.5346 9.6 16.5916 9.6 17.8917V21.4274ZM3.6 9.64173C3.2685 9.64173 3 9.90691 3 10.231V12.5882C3 12.9123 3.2685 13.1774 3.6 13.1774H4.8C5.13 13.1774 5.4 12.9123 5.4 12.5882V10.231C5.4 9.90691 5.13 9.64173 4.8 9.64173H3.6ZM18.6 12.5882C18.6 12.9123 18.87 13.1774 19.2 13.1774H20.4C20.73 13.1774 21 12.9123 21 12.5882V10.231C21 9.90691 20.73 9.64173 20.4 9.64173H19.2C18.87 9.64173 18.6 9.90691 18.6 10.231V12.5882ZM3.6 14.356C3.2685 14.356 3 14.6212 3 14.9453V17.3024C3 17.6266 3.2685 17.8917 3.6 17.8917H4.8C5.13 17.8917 5.4 17.6266 5.4 17.3024V14.9453C5.4 14.6212 5.13 14.356 4.8 14.356H3.6ZM18.6 17.3024C18.6 17.6266 18.87 17.8917 19.2 17.8917H20.4C20.73 17.8917 21 17.6266 21 17.3024V14.9453C21 14.6212 20.73 14.356 20.4 14.356H19.2C18.87 14.356 18.6 14.6212 18.6 14.9453V17.3024ZM12 12.2935C13.8225 12.2935 15.3 10.8424 15.3 9.05245C15.3 7.26249 13.8225 5.81137 12 5.81137C10.1775 5.81137 8.7 7.26249 8.7 9.05245C8.7 10.8424 10.1775 12.2935 12 12.2935Z" fill="#9A4292"/>
</svg>
