<svg width="24" height="24" viewBox="0 0 24 24" fill="none" xmlns="http://www.w3.org/2000/svg">
<g clip-path="url(#clip0_4401_3061)">
<path d="M1.2 4.33817C1.2 3.3618 2.00588 2.57031 3 2.57031C3.99375 2.57031 4.8 3.3618 4.8 4.33817C4.8 5.31454 3.99375 6.10603 3 6.10603C2.00588 6.10603 1.2 5.31454 1.2 4.33817ZM3.6 7.2846C4.92375 7.2846 6 8.34163 6 9.64174C6 10.2936 5.46375 10.8203 4.8 10.8203H1.2C0.537375 10.8203 0 10.2936 0 9.64174C0 8.34163 1.07438 7.2846 2.4 7.2846H3.6ZM4.8 14.9453C4.8 15.9213 3.99375 16.7132 3 16.7132C2.00588 16.7132 1.2 15.9213 1.2 14.9453C1.2 13.9693 2.00588 13.1775 3 13.1775C3.99375 13.1775 4.8 13.9693 4.8 14.9453ZM3.6 17.8917C4.92375 17.8917 6 18.9488 6 20.2489C6 20.9008 5.46375 21.4275 4.8 21.4275H1.2C0.537375 21.4275 0 20.9008 0 20.2489C0 18.9488 1.07438 17.8917 2.4 17.8917H3.6ZM8.4 5.51674C8.4 4.54037 9.20625 3.74888 10.2 3.74888H18V9.64174H10.2C9.20625 9.64174 8.4 8.84989 8.4 7.87388V5.51674ZM8.4 16.1239C8.4 15.1479 9.20625 14.356 10.2 14.356H14.4V20.2489H10.2C9.20625 20.2489 8.4 19.457 8.4 18.481V16.1239Z" fill="#9A4292"/>
<path opacity="0.4" d="M17.9984 7.28571H21.5984V6.10714H17.9984V3.75H22.1984C23.1922 3.75 23.9984 4.54148 23.9984 5.51786V7.875C23.9984 8.851 23.1922 9.64286 22.1984 9.64286H17.9984V7.28571ZM14.3984 17.8929H21.5984V16.7143H14.3984V14.3571H22.1984C23.1922 14.3571 23.9984 15.149 23.9984 16.125V18.4821C23.9984 19.4581 23.1922 20.25 22.1984 20.25H14.3984V17.8929Z" fill="#9A4292"/>
</g>
<defs>
<clipPath id="clip0_4401_3061">
<rect width="24" height="24" fill="white"/>
</clipPath>
</defs>
</svg>
