<?xml version="1.0" encoding="UTF-8"?>
<svg width="512pt" height="512pt" version="1.1" viewBox="0 0 512 512" xmlns="http://www.w3.org/2000/svg">
 <path d="m292.69 415.15 197.98-137.82v106.67c0 28.289-11.238 55.422-31.242 75.426-20.004 20.004-47.137 31.242-75.426 31.242h-256c-28.289 0-55.422-11.238-75.426-31.242-20.004-20.004-31.242-47.137-31.242-75.426v-106.67l197.97 138.67h0.003906c10.754 7.5273 23.562 11.562 36.691 11.562s25.938-4.0352 36.691-11.562zm-271.36-201.82c0.011719-6.9805 3.4375-13.512 9.1758-17.492l54.824-38.398v-72.109c0-16.973 6.7422-33.25 18.746-45.254s28.281-18.746 45.254-18.746h213.34c16.973 0 33.25 6.7422 45.254 18.746s18.746 28.281 18.746 45.254v72.109l54.828 38.398h-0.003906c5.7188 3.9922 9.125 10.523 9.125 17.492 0 6.9727-3.4062 13.504-9.125 17.496l-213.33 149.33c-3.5703 2.4766-7.8125 3.8047-12.16 3.8047s-8.5898-1.3281-12.16-3.8047l-213.33-149.33c-5.7383-3.9805-9.1641-10.516-9.1758-17.496zm149.34-85.332c0 5.6562 2.2461 11.086 6.2461 15.086s9.4297 6.2461 15.086 6.2461h128c7.6211 0 14.664-4.0664 18.477-10.664 3.8086-6.6016 3.8086-14.734 0-21.336-3.8125-6.5977-10.855-10.664-18.477-10.664h-128c-5.6562 0-11.086 2.2461-15.086 6.2461s-6.2461 9.4297-6.2461 15.086zm0 85.332c0 5.6602 2.2461 11.086 6.2461 15.086s9.4297 6.25 15.086 6.25h128c7.6211 0 14.664-4.0664 18.477-10.668 3.8086-6.6016 3.8086-14.734 0-21.332-3.8125-6.6016-10.855-10.668-18.477-10.668h-128c-5.6562 0-11.086 2.2461-15.086 6.25-4 4-6.2461 9.4258-6.2461 15.082z" fill="#ed9c3d"/>
</svg>
