<?xml version="1.0" encoding="utf-8"?>
<!-- Generator: Adobe Illustrator 27.0.0, SVG Export Plug-In . SVG Version: 6.00 Build 0)  -->
<svg version="1.1" id="Layer_1" xmlns="http://www.w3.org/2000/svg" xmlns:xlink="http://www.w3.org/1999/xlink" x="0px" y="0px"
	 viewBox="0 0 40 40" style="enable-background:new 0 0 40 40;" xml:space="preserve">
<style type="text/css">
	.st0{fill:#9A4292;}
	.st1{opacity:0.4;enable-background:new    ;}
	.st2{fill:#2D70AE;}
	.st3{fill:#2D9DA6;}
	.st4{fill:#EFA929;}
	.st5{fill:#D5546D;}
</style>
<path class="st0" d="M32.38,25.89c0.37-0.36,0.37-0.96,0-1.32c-0.36-0.37-0.96-0.37-1.32,0l-3.56,3.56l-1.68-1.68
	c-0.36-0.37-0.96-0.37-1.32,0c-0.37,0.36-0.37,0.96,0,1.32l2.34,2.34c0.36,0.37,0.96,0.37,1.32,0L32.38,25.89z M20,27.1
	c0-4.66,3.78-8.44,8.44-8.44s8.44,3.78,8.44,8.44s-3.78,8.44-8.44,8.44S20,31.76,20,27.1z"/>
<g class="st1">
	<path class="st0" d="M7.81,26.17h5.62c0.52,0,0.94-0.42,0.94-0.94s-0.42-0.94-0.94-0.94H7.81c-0.52,0-0.94,0.42-0.94,0.94
		S7.29,26.17,7.81,26.17z M7.81,20.54h9.38c0.52,0,0.94-0.42,0.94-0.94s-0.42-0.94-0.94-0.94H7.81c-0.52,0-0.94,0.42-0.94,0.94
		S7.29,20.54,7.81,20.54z M7.81,13.04c-0.52,0-0.94,0.42-0.94,0.94s0.42,0.94,0.94,0.94h13.12c0.52,0,0.94-0.42,0.94-0.94
		s-0.42-0.94-0.94-0.94H7.81z M21.88,5.54c2.07,0,3.75,1.68,3.75,3.75v7.89c-4.33,1.22-7.5,5.2-7.5,9.93c0,3.46,1.71,6.52,4.32,8.4
		c-0.18,0.02-0.38,0.04-0.57,0.04h-15c-2.07,0-3.75-1.68-3.75-3.75V9.29c0-2.07,1.68-3.75,3.75-3.75H21.88z"/>
</g>
</svg>
