<?xml version="1.0" encoding="UTF-8"?>
<svg xmlns="http://www.w3.org/2000/svg" xmlns:xlink="http://www.w3.org/1999/xlink" width="32px" height="32px" viewBox="0 0 32 32" version="1.1">
<defs>
<filter id="alpha" filterUnits="objectBoundingBox" x="0%" y="0%" width="100%" height="100%">
  <feColorMatrix type="matrix" in="SourceGraphic" values="0 0 0 0 1 0 0 0 0 1 0 0 0 0 1 0 0 0 1 0"/>
</filter>
<mask id="mask0">
  <g filter="url(#alpha)">
<rect x="0" y="0" width="32" height="32" style="fill:rgb(0%,0%,0%);fill-opacity:0.4;stroke:none;"/>
  </g>
</mask>
<clipPath id="clip1">
  <rect x="0" y="0" width="32" height="32"/>
</clipPath>
<g id="surface5" clip-path="url(#clip1)">
<path style=" stroke:none;fill-rule:nonzero;fill:rgb(83.529412%,32.941176%,42.745098%);fill-opacity:1;" d="M 21.246094 19 L 16.753906 19 C 16.335938 19 16 18.664062 16 18.246094 C 16 17.832031 16.335938 17.496094 16.753906 17.496094 L 21.246094 17.496094 C 21.664062 17.496094 22 17.832031 22 18.246094 C 22 18.664062 21.664062 19 21.246094 19 Z M 21.246094 23.503906 L 15.246094 23.503906 C 14.832031 23.503906 14.496094 23.167969 14.496094 22.753906 C 14.496094 22.335938 14.832031 22 15.246094 22 L 21.246094 22 C 21.664062 22 22 22.335938 22 22.753906 C 22 23.160156 21.664062 23.503906 21.246094 23.503906 Z M 12.246094 19 C 12.054688 19 11.863281 18.929688 11.71875 18.785156 L 10.214844 17.28125 C 9.921875 16.984375 9.921875 16.511719 10.214844 16.214844 C 10.511719 15.921875 10.984375 15.921875 11.28125 16.214844 L 12.246094 17.183594 L 14.71875 14.710938 C 15.015625 14.414062 15.488281 14.414062 15.785156 14.710938 C 16.078125 15.007812 16.078125 15.480469 15.785156 15.777344 L 12.785156 18.777344 C 12.632812 18.929688 12.441406 19 12.246094 19 Z M 11.503906 23.871094 C 10.878906 23.871094 10.375 23.367188 10.375 22.742188 C 10.375 22.121094 10.878906 21.617188 11.503906 21.617188 C 12.128906 21.617188 12.632812 22.121094 12.632812 22.742188 C 12.632812 23.367188 12.121094 23.871094 11.503906 23.871094 Z M 22.753906 7 L 19 7 C 20.65625 7 22 8.34375 22 10 L 22 10.753906 C 22 11.167969 21.664062 11.503906 21.246094 11.503906 L 10.753906 11.503906 C 10.335938 11.503906 10 11.167969 10 10.753906 L 10 10 C 10 8.34375 11.34375 7 13 7 L 9.246094 7 C 8.007812 7 7 8.007812 7 9.246094 L 7 25.742188 C 7 26.984375 8.007812 27.992188 9.246094 27.992188 L 22.753906 27.992188 C 23.992188 27.992188 25 26.984375 25 25.742188 L 25 9.246094 C 25 8.007812 23.992188 7 22.753906 7 Z M 22.753906 7 "/>
</g>
</defs>
<g id="surface1">
<path style=" stroke:none;fill-rule:nonzero;fill:rgb(83.529412%,32.941176%,42.745098%);fill-opacity:1;" d="M 14.71875 14.71875 L 12.246094 17.191406 L 11.28125 16.222656 C 10.984375 15.929688 10.511719 15.929688 10.214844 16.222656 C 9.921875 16.519531 9.921875 16.992188 10.214844 17.289062 L 11.71875 18.792969 C 11.863281 18.9375 12.054688 19.007812 12.246094 19.007812 C 12.441406 19.007812 12.632812 18.9375 12.777344 18.792969 L 15.777344 15.792969 C 16.070312 15.496094 16.070312 15.023438 15.777344 14.726562 C 15.488281 14.425781 15.007812 14.425781 14.71875 14.71875 Z M 11.503906 21.625 C 10.878906 21.625 10.375 22.128906 10.375 22.753906 C 10.375 23.375 10.878906 23.878906 11.503906 23.878906 C 12.128906 23.878906 12.632812 23.375 12.632812 22.753906 C 12.632812 22.128906 12.121094 21.625 11.503906 21.625 Z M 16 8.128906 C 15.375 8.128906 14.871094 7.625 14.871094 7 C 14.871094 6.375 15.375 5.871094 16 5.871094 C 16.625 5.871094 17.128906 6.375 17.128906 7 C 17.128906 7.625 16.625 8.128906 16 8.128906 Z M 19 7 C 19 5.34375 17.65625 4 16 4 C 14.34375 4 13 5.34375 13 7 C 11.34375 7 10 8.34375 10 10 L 10 10.753906 C 10 11.167969 10.335938 11.503906 10.753906 11.503906 L 21.246094 11.503906 C 21.664062 11.503906 22 11.167969 22 10.753906 L 22 10 C 22 8.34375 20.65625 7 19 7 Z M 19 7 "/>
<use xlink:href="#surface5" mask="url(#mask0)"/>
</g>
</svg>
