<svg width="140" height="140" viewBox="0 0 140 140" fill="none" xmlns="http://www.w3.org/2000/svg"><g clip-path="url(#clip0_2154_26686)"><path fill="#fff" d="M0 0h140v140H0z"/><path d="M88 .5v35h35L88 .5zm-8.75 35V.5H31.125C23.7422.5 18 6.51562 18 13.625v113.75c0 7.383 5.7422 13.125 13.125 13.125h78.75c7.109 0 13.125-5.742 13.125-13.125V44.25H88c-4.9219 0-8.75-3.8281-8.75-8.75zm13.125 78.75h-43.75c-2.4609 0-4.375-1.914-4.375-4.375 0-2.187 1.9141-4.375 4.375-4.375h43.75c2.1875 0 4.375 2.188 4.375 4.375 0 2.461-2.1875 4.375-4.375 4.375zm0-17.5h-43.75c-2.4609 0-4.375-1.9141-4.375-4.375 0-2.1875 1.9141-4.375 4.375-4.375h43.75c2.1875 0 4.375 2.1875 4.375 4.375 0 2.4609-2.1875 4.375-4.375 4.375zm4.375-21.875c0 2.4609-2.1875 4.375-4.375 4.375h-43.75c-2.4609 0-4.375-1.9141-4.375-4.375 0-2.1875 1.9141-4.375 4.375-4.375h43.75c2.1875 0 4.375 2.1875 4.375 4.375z" fill="#9A4292"/></g><defs><clipPath id="clip0_2154_26686"><path fill="#fff" d="M0 0h140v140H0z"/></clipPath></defs></svg>