<svg width="17" height="17" viewBox="0 0 17 17" fill="none" xmlns="http://www.w3.org/2000/svg">
<path d="M8.42241 6.48511L11.9366 8.08809C12.1216 8.18057 12.2449 8.36553 12.2449 8.55048C12.2449 8.73544 12.1216 8.9204 11.9366 9.01288L8.42241 10.6159L6.81943 14.1301C6.72695 14.315 6.542 14.4383 6.35704 14.4383C6.17208 14.4383 5.98712 14.315 5.92546 14.1301L4.29166 10.6159L0.777439 9.01288C0.59248 8.9204 0.5 8.73544 0.5 8.55048C0.5 8.36553 0.59248 8.18057 0.777439 8.08809L4.29166 6.48511L5.92546 2.97089C5.98712 2.78593 6.17208 2.66262 6.35704 2.66262C6.542 2.66262 6.72695 2.78593 6.81943 2.97089L8.42241 6.48511Z" fill="#EFA929"/>
<path d="M10.5803 3.34081L12.3374 2.66262L12.9847 0.936338C13.0156 0.782205 13.1697 0.689726 13.3238 0.689726C13.4471 0.689726 13.6013 0.782205 13.6321 0.936338L14.3103 2.66262L16.0366 3.34081C16.1907 3.37163 16.2832 3.52576 16.2832 3.64907C16.2832 3.8032 16.1907 3.95734 16.0366 3.98816L14.3103 4.63552L13.6321 6.39263C13.6013 6.51594 13.4471 6.60841 13.3238 6.60841C13.1697 6.60841 13.0156 6.51594 12.9847 6.39263L12.3374 4.63552L10.5803 3.98816C10.4261 3.95734 10.3645 3.8032 10.3645 3.64907C10.3645 3.52576 10.4261 3.37163 10.5803 3.34081ZM10.5803 13.2053L12.3374 12.5271L12.9847 10.8008C13.0156 10.6467 13.1697 10.5542 13.3238 10.5542C13.4471 10.5542 13.6013 10.6467 13.6321 10.8008L14.3103 12.5271L16.0366 13.2053C16.1907 13.2361 16.2832 13.3902 16.2832 13.5136C16.2832 13.6677 16.1907 13.8218 16.0366 13.8526L14.3103 14.5L13.6321 16.2571C13.6013 16.3804 13.4471 16.4729 13.3238 16.4729C13.1697 16.4729 13.0156 16.3804 12.9847 16.2571L12.3374 14.5L10.5803 13.8526C10.4261 13.8218 10.3645 13.6677 10.3645 13.5136C10.3645 13.3902 10.4261 13.2361 10.5803 13.2053Z" fill="#EFA929" fill-opacity="0.5"/>
</svg>
